<svg width="7" height="19" viewBox="0 0 7 19" fill="none" xmlns="http://www.w3.org/2000/svg">
    <g id="Vector" opacity="1">
        <mask id="path-1-inside-1_800_2054" fill="white">
            <path d="M7 19L0 9.5L7 0" />
        </mask>
        <path
            d="M5.38989 20.1864L6.57629 21.7965L9.79651 19.4237L8.61011 17.8136L5.38989 20.1864ZM0 9.5L-1.61011 8.3136C-2.12996 9.01911 -2.12996 9.98089 -1.61011 10.6864L0 9.5ZM8.61011 1.1864L9.79651 -0.423714L6.57629 -2.79651L5.38989 -1.1864L8.61011 1.1864ZM8.61011 17.8136L1.61011 8.3136L-1.61011 10.6864L5.38989 20.1864L8.61011 17.8136ZM1.61011 10.6864L8.61011 1.1864L5.38989 -1.1864L-1.61011 8.3136L1.61011 10.6864Z"
            fill="white" mask="url(#path-1-inside-1_800_2054)" />
    </g>
</svg>