<svg width="405" height="110" viewBox="0 0 405 110" fill="none" xmlns="http://www.w3.org/2000/svg">
<path fill-rule="evenodd" clip-rule="evenodd" d="M22.3219 23.4739C22.3219 23.4739 27.6959 20.0654 27.5851 12.871C27.5851 0.430905 13.7491 0.430908 13.7491 0.430908H0V50.1506H13.6626C13.6626 50.1506 29.3159 50.1506 29.3159 36.0786C29.3159 29.5297 25.9419 25.6978 22.3219 23.4739ZM8.80504 7.8073H12.2098C12.2098 7.8073 19.2657 7.80729 19.2657 14.1516C19.2657 20.5121 12.2098 20.4816 12.2098 20.4816H8.80504V7.8073ZM12.5646 42.7934H8.80504V28.7992H12.5646C12.5646 28.7992 20.3578 28.7641 20.3578 35.7853C20.3578 42.7934 12.5646 42.7934 12.5646 42.7934ZM142.437 50.1506L152.57 9.47295L151.69 50.1506H160.69V0.430908H147.752L137.89 36.9174L128.033 0.430908H115.088V50.1506H124.09L123.21 9.47295L133.34 50.1506H142.437ZM57.3797 0.431519H45.7511L34.738 50.1512H43.9411L45.9045 39.8886H57.3323L59.1897 50.1512H68.397L57.3797 0.431519ZM55.705 31.947H47.6975L51.8458 8.35215L55.705 31.947ZM104.229 38.2724C104.229 51.1723 89.9573 51.1073 89.9573 51.1073H89.1906C89.1906 51.1073 74.9219 51.1073 74.9219 38.237V0.431519H83.709V38.5617C83.709 43.7081 89.4167 43.7081 89.4167 43.7081H89.7209C89.7209 43.7081 95.4276 43.73 95.4276 38.577V0.431519H104.238L104.229 38.2724ZM324.631 38.2724L324.645 0.431519H315.181V38.577C315.181 43.73 309.05 43.7081 309.05 43.7081H308.722C308.722 43.7081 302.598 43.7081 302.598 38.5617V0.431519H293.159V38.237C293.159 51.1073 308.483 51.1073 308.483 51.1073H309.303C309.303 51.1073 324.631 51.1723 324.631 38.2724ZM384.951 0.431519C394.927 0.431519 405 0.431516 405 21.3929V29.1879C405 50.1512 395.349 50.1512 384.972 50.1512H374.598V0.431519H384.951ZM396.222 25.2871C396.222 8.36374 394.325 7.80516 383.729 7.80516V42.7775C394.325 42.7775 396.222 42.2132 396.222 25.2871ZM390.212 108.451H402.826V58.7551H394.055L394.917 97.8811L385.034 58.7551H372.424V108.475H381.202L380.337 68.5704L390.212 108.451ZM206.937 70.383C206.937 65.2183 201.02 65.2183 201.02 65.2183H200.701C200.701 65.2183 194.783 65.1945 194.783 70.3686V96.8405C194.783 102.007 200.701 102.007 200.701 102.007H201.02C201.02 102.007 206.937 102.033 206.937 96.8545V89.7623H200.701V81.7383H216.067V96.552C216.067 109.493 201.264 109.431 201.264 109.431L200.472 109.427C200.472 109.427 185.665 109.427 185.665 96.5136V70.6781C185.665 57.7358 200.472 57.7989 200.472 57.7989L201.264 57.8029C201.264 57.8029 216.067 57.8029 216.067 70.7126V74.4274H206.919L206.937 70.383ZM244.138 58.7551H232.507L221.498 108.475H230.698L232.668 98.2076H244.09L245.947 108.475H255.157L244.138 58.7551ZM242.464 90.2675H234.458L238.602 66.6742L242.464 90.2675ZM45.7116 108.475V87.471H60.7059V80.0976H45.7116V66.1272H62.9811V58.7551H36.9225V108.475H45.7116ZM97.7218 58.7551V66.1272H79.7341V80.0976H95.3486V87.471H79.7341V101.102H97.7218V108.475H70.5774V58.7551H97.7218ZM362.642 66.1272V58.7551H335.496V108.475H362.642V101.102H344.662V87.471H360.274V80.0976H344.662V66.1272H362.642ZM8.80504 80.0979H12.5646C12.5646 80.0979 20.3578 80.1339 20.3578 73.1139C20.3578 66.1101 12.5646 66.1101 12.5646 66.1101H8.80504V80.0979ZM0 58.7551H13.6626C13.6626 58.7551 29.3159 59.0292 29.3159 73.0978C29.3159 87.1673 13.6626 87.4405 13.6626 87.4405H8.80504V108.475H0V58.7551ZM131.862 83.8155C134.611 81.7032 136.81 78.3667 136.81 73.0969C136.81 59.0292 121.157 58.7551 121.157 58.7551H107.494V108.475H116.296V87.5173H120.044C127.82 87.5173 127.82 94.5403 127.82 94.5403V108.475H136.657V94.2043C136.657 94.2043 136.518 87.9932 131.862 83.8155ZM116.296 66.1083H120.058C120.058 66.1083 127.853 66.1083 127.853 73.1139C127.853 80.1312 120.058 80.0976 120.058 80.0976H116.296V66.1083ZM292.078 73.0969C292.078 78.3667 289.798 81.7032 286.948 83.8155C291.775 87.9932 291.918 94.2043 291.918 94.2043V108.475H282.755V94.5403C282.755 94.5403 282.755 87.5173 274.693 87.5173H270.804V108.475H261.676V58.7551H275.845C275.845 58.7551 292.078 59.0292 292.078 73.0969ZM274.706 66.1083H270.804V80.0976H274.706C274.706 80.0976 282.789 80.1312 282.789 73.1139C282.789 66.1083 274.706 66.1083 274.706 66.1083ZM308.895 66.1272V108.475H317.656V66.1272H327.916V58.7551H298.598V66.1272H308.895ZM156.931 58.7551C166.904 58.7551 176.978 58.7551 176.978 79.7162V87.5136C176.978 108.475 167.324 108.475 156.942 108.475H146.576V58.7551H156.931ZM168.198 83.6119C168.198 66.6858 166.304 66.1272 155.709 66.1272V101.101C166.304 101.101 168.198 100.538 168.198 83.6119ZM351.759 50.1268H364.822V0.430908H355.743L356.636 39.5569L346.397 0.430908H333.336V50.1506H342.426L341.53 10.2462L351.759 50.1268Z" fill="white"/>
</svg>
