<svg width="60" height="47" viewBox="0 0 60 47" fill="none" xmlns="http://www.w3.org/2000/svg">
<g clip-path="url(#clip0_540_2415)">
<path d="M0.114166 8.22519V14.7808H9.47595L0.114166 8.22519ZM7.87241 44.7225H21.7388V35.0131L7.87241 44.7225ZM38.3731 35.0147V44.7225H52.2378L38.3731 35.0147ZM0.114166 31.4151V37.9707L9.47928 31.4151H0.114166ZM52.2411 1.47332H38.3731V11.1828L52.2411 1.47332ZM59.9977 37.9723V31.4151H50.6309L59.9977 37.9723ZM59.9977 14.7808V8.22519L50.6342 14.7808H59.9977ZM21.7388 1.47332H7.87241L21.7388 11.1828V1.47332Z" fill="#00247D"/>
<path d="M41.9328 31.4151L58.088 42.7281C58.877 41.9153 59.444 40.9135 59.7348 39.8187L47.7332 31.4151H41.9328ZM21.7388 31.4151H18.1774L2.02378 42.7264C2.89043 43.608 4.0016 44.2385 5.24751 44.5312L21.7388 32.9837V31.4151ZM38.3731 14.7808H41.9345L58.088 3.46944C57.2065 2.57497 56.0892 1.94911 54.866 1.66462L38.3731 13.2122V14.7808ZM18.1774 14.7808L2.02378 3.46944C1.23524 4.28282 0.667776 5.28432 0.37532 6.37878L12.377 14.7808H18.1774Z" fill="#CF1B2B"/>
<path d="M59.9977 28.0882H35.0462V44.7225H38.3731V35.0147L52.2378 44.7225H53.3439C54.2277 44.7227 55.1025 44.5463 55.9172 44.2038C56.7318 43.8613 57.4699 43.3596 58.0881 42.7281L41.9328 31.4151H47.7332L59.7348 39.8187C59.8895 39.2581 59.9977 38.6776 59.9977 38.0688V37.9723L50.6309 31.4151H59.9977V28.0882ZM0.114166 28.0882V31.4151H9.47928L0.114166 37.9707V38.0688C0.114166 39.8836 0.844412 41.5254 2.02378 42.7264L18.1774 31.4151H21.7388V32.9837L5.24751 44.5296C5.73656 44.646 6.24224 44.7225 6.76789 44.7225H7.87241L21.7388 35.0131V44.7225H25.0656V28.0882H0.114166ZM59.9977 8.12705C59.9987 6.38374 59.3126 4.71028 58.0881 3.46944L41.9345 14.7808H38.3731V13.2122L54.866 1.66462C54.3677 1.5424 53.857 1.47821 53.3439 1.47332H52.2411L38.3731 11.1828V1.47332H35.0462V18.1076H59.9977V14.7808H50.6342L59.9977 8.22519V8.12705ZM21.7388 1.47332V11.1828L7.87241 1.47332H6.76789C5.88398 1.47294 5.00892 1.64934 4.19419 1.99214C3.37946 2.33494 2.64152 2.83723 2.02378 3.46944L18.1774 14.7808H12.377L0.375325 6.37878C0.21028 6.94719 0.122439 7.53522 0.114166 8.12705L0.114166 8.22519L9.47595 14.7808H0.114166V18.1076H25.0656V1.47332H21.7388Z" fill="#EEEEEE"/>
<path d="M35.0462 18.1076V1.47332H25.0656V18.1076H0.114166V28.0882H25.0656V44.7225H35.0462V28.0882H59.9977V18.1076H35.0462Z" fill="#CF1B2B"/>
</g>
<defs>
<clipPath id="clip0_540_2415">
<rect width="59.8835" height="46.1958" fill="white" transform="translate(0.114166)"/>
</clipPath>
</defs>
</svg>
