<svg width="60" height="47" viewBox="0 0 60 47" fill="none" xmlns="http://www.w3.org/2000/svg">
<g clip-path="url(#clip0_540_2412)">
<path d="M53.2321 1.47336H24.9538V19.7711H59.8858V8.12708C59.8858 6.36241 59.1848 4.67 57.937 3.42219C56.6892 2.17437 54.9968 1.47336 53.2321 1.47336ZM24.9538 44.7226H53.2321C56.9066 44.7226 59.8858 41.7434 59.8858 37.2371V26.4248H24.9538V44.7226ZM0.00233459 26.4248V37.2371C0.00233459 41.7434 2.98154 44.7226 6.65606 44.7226H18.3001V26.4248H0.00233459ZM18.3001 1.47336H6.65606C4.89138 1.47336 3.19898 2.17437 1.95116 3.42219C0.70335 4.67 0.00233459 6.36241 0.00233459 8.12708L0.00233459 19.7711H18.3001V1.47336Z" fill="#C60C30"/>
<path d="M24.9538 1.47336H18.3001V19.7711H0.00233459V26.4248H18.3001V44.7226H24.9538V26.4248H59.8858V19.7711H24.9538V1.47336Z" fill="#EEEEEE"/>
</g>
<defs>
<clipPath id="clip0_540_2412">
<rect width="59.8835" height="46.1958" fill="white" transform="translate(0.00233459)"/>
</clipPath>
</defs>
</svg>
