<svg width="14" height="14" viewBox="0 0 14 14" fill="none" xmlns="http://www.w3.org/2000/svg">
<path id="Vector" fill-rule="evenodd" clip-rule="evenodd" d="M0.357437 3.86115C0.357437 2.90186 0.738514 1.98186 1.41683 1.30354C2.09515 0.625217 3.01515 0.244141 3.97444 0.244141H9.76166C10.7209 0.244141 11.6409 0.625217 12.3193 1.30354C12.9976 1.98186 13.3787 2.90186 13.3787 3.86115V9.64836C13.3787 10.6077 12.9976 11.5277 12.3193 12.206C11.6409 12.8843 10.7209 13.2654 9.76166 13.2654H3.97444C3.01515 13.2654 2.09515 12.8843 1.41683 12.206C0.738514 11.5277 0.357437 10.6077 0.357437 9.64836V3.86115ZM3.97444 1.69094C3.39887 1.69094 2.84687 1.91959 2.43988 2.32658C2.03289 2.73357 1.80424 3.28557 1.80424 3.86115V9.64836C1.80424 10.2239 2.03289 10.7759 2.43988 11.1829C2.84687 11.5899 3.39887 11.8186 3.97444 11.8186H9.76166C10.3372 11.8186 10.8892 11.5899 11.2962 11.1829C11.7032 10.7759 11.9319 10.2239 11.9319 9.64836V3.86115C11.9319 3.28557 11.7032 2.73357 11.2962 2.32658C10.8892 1.91959 10.3372 1.69094 9.76166 1.69094H3.97444ZM9.47013 3.29255C9.47013 3.1007 9.54634 2.9167 9.68201 2.78103C9.81767 2.64537 10.0017 2.56915 10.1935 2.56915H10.2008C10.3926 2.56915 10.5766 2.64537 10.7123 2.78103C10.8479 2.9167 10.9242 3.1007 10.9242 3.29255C10.9242 3.48441 10.8479 3.66841 10.7123 3.80408C10.5766 3.93974 10.3926 4.01596 10.2008 4.01596H10.1935C10.0017 4.01596 9.81767 3.93974 9.68201 3.80408C9.54634 3.66841 9.47013 3.48441 9.47013 3.29255ZM6.86805 4.58455C6.29248 4.58455 5.74048 4.8132 5.33348 5.22019C4.92649 5.62718 4.69785 6.17918 4.69785 6.75475C4.69785 7.33033 4.92649 7.88233 5.33348 8.28932C5.74048 8.69631 6.29248 8.92496 6.86805 8.92496C7.44362 8.92496 7.99563 8.69631 8.40262 8.28932C8.80961 7.88233 9.03826 7.33033 9.03826 6.75475C9.03826 6.17918 8.80961 5.62718 8.40262 5.22019C7.99563 4.8132 7.44362 4.58455 6.86805 4.58455ZM3.25104 6.75475C3.25104 5.79546 3.63212 4.87546 4.31044 4.19714C4.98876 3.51882 5.90876 3.13775 6.86805 3.13775C7.82734 3.13775 8.74734 3.51882 9.42566 4.19714C10.104 4.87546 10.4851 5.79546 10.4851 6.75475C10.4851 7.71404 10.104 8.63404 9.42566 9.31237C8.74734 9.99069 7.82734 10.3718 6.86805 10.3718C5.90876 10.3718 4.98876 9.99069 4.31044 9.31237C3.63212 8.63404 3.25104 7.71404 3.25104 6.75475Z" fill="white"/>
</svg>
