<svg width="64" height="6" viewBox="0 0 64 6" fill="none" xmlns="http://www.w3.org/2000/svg">
<path id="jade cropper" d="M0.331977 4.71797C0.890859 5.48758 1.5026 5.73989 2.18976 5.73989C3.29012 5.73989 3.37198 4.37019 3.37198 3.80224V0.162689H4.40272V3.80224C4.40272 5.0755 3.47641 5.99903 2.18976 5.99903C1.33951 5.99903 0.524072 5.63371 0 5.03458L0.331977 4.71797ZM8.41997 4.01266H6.27662L5.70614 5.83634H4.60578L6.97538 0.162689H7.72056L10.0908 5.83731H8.99045L8.41997 4.01266ZM8.3381 3.74574L7.34797 0.575743L6.35784 3.74574H8.3381ZM10.6394 0.162689H13.1379C14.9493 0.162689 16.1251 1.39503 16.1251 2.99951C16.1251 4.60399 14.9776 5.83634 13.1379 5.83634H10.6394V0.162689ZM13.0502 5.57818C14.7043 5.57818 15.1001 3.83536 15.1001 2.92742C15.1001 2.01948 14.7159 0.422796 13.0502 0.422796H11.6585V5.57915L13.0502 5.57818ZM16.9179 5.83731V0.162689H21.2678L21.1685 0.421822H17.948V2.73161H20.3937V2.99075H17.948V5.5772H21.3432L21.4367 5.83634L16.9179 5.83731ZM24.2375 3.00828C24.2375 1.35412 25.3205 0.000974183 27.05 0.000974183C28.1388 0.000974183 28.8085 0.293229 29.3796 0.957623L29.0709 1.24988C28.5758 0.447151 27.8828 0.261081 27.1029 0.261081C25.6705 0.261081 25.2625 1.83341 25.2625 2.9849C25.2625 4.13639 25.6989 5.74087 27.1261 5.74087C27.7552 5.74087 28.5526 5.56259 29.0657 4.7433L29.3803 5.03556C28.9961 5.44861 28.396 6 27.0745 6C25.3392 6 24.2388 4.66245 24.2388 3.00828H24.2375ZM30.1725 5.83731V0.162689H32.7523C34.2781 0.162689 35.0819 1.02971 35.0819 1.97857C35.0819 2.73259 34.6223 3.29177 33.9519 3.59182L35.1863 5.83731H34.1556L33.043 3.8266C32.9437 3.83439 32.8509 3.83439 32.7516 3.83439H31.2026V5.83634H30.1719L30.1725 5.83731ZM32.4957 3.58402C33.6315 3.58402 34.0621 2.7813 34.0621 1.99513C34.0621 1.20896 33.6309 0.422796 32.4957 0.422796H31.2026V3.58402H32.4957ZM38.7085 0C40.6997 0 41.8414 1.18363 41.8478 2.92645C41.8478 4.66147 40.7178 5.99903 38.7034 5.99903C36.7121 5.99123 35.5589 4.69362 35.5589 2.94301C35.5589 1.1924 36.7341 0 38.7085 0ZM40.8171 2.95178C40.8171 1.7925 40.2292 0.260107 38.686 0.260107C37.1427 0.260107 36.5839 1.73502 36.5839 2.8943C36.5839 4.17535 37.3174 5.73989 38.7208 5.73989C40.1241 5.73989 40.8171 4.22504 40.8171 2.95178ZM42.6316 0.162689H45.0947C46.6205 0.162689 47.4244 1.08719 47.4244 2.10034C47.4244 3.11349 46.6205 4.06235 45.0947 4.06235H43.6624V5.83829H42.6316V0.162689ZM44.8388 3.80224C45.9746 3.80224 46.3936 2.97516 46.3936 2.11593C46.3936 1.2567 45.9746 0.421822 44.8388 0.421822H43.6624V3.80224H44.8388ZM48.1547 0.162689H50.6178C52.1436 0.162689 52.9474 1.08719 52.9474 2.10034C52.9474 3.11349 52.1436 4.06235 50.6178 4.06235H49.1855V5.83829H48.1547V0.162689ZM50.3619 3.80224C51.4977 3.80224 51.9167 2.97516 51.9167 2.11593C51.9167 1.2567 51.4977 0.421822 50.3619 0.421822H49.1855V3.80224H50.3619ZM53.6784 5.83731V0.162689H58.0283L57.929 0.421822H54.7085V2.73161H57.1542V2.99075H54.7085V5.5772H58.1037L58.1972 5.83634L53.6784 5.83731ZM58.9862 5.83731V0.162689H61.5659C63.0917 0.162689 63.8956 1.02971 63.8956 1.97857C63.8956 2.73259 63.436 3.29177 62.7656 3.59182L64 5.83731H62.9693L61.8567 3.8266C61.7574 3.83439 61.6646 3.83439 61.5653 3.83439H60.0163V5.83634H58.9855L58.9862 5.83731ZM61.31 3.58402C62.4458 3.58402 62.8764 2.7813 62.8764 1.99513C62.8764 1.20896 62.4452 0.422796 61.31 0.422796H60.0169V3.58402H61.31Z" fill="white"/>
</svg>
