<svg width="24" height="34" viewBox="0 0 24 34" fill="#5E716A" xmlns="http://www.w3.org/2000/svg">
    <path id="Vector"
        d="M12 0.655884C8.81851 0.659712 5.76836 2.002 3.5187 4.38826C1.26905 6.77453 0.00360918 10.0099 0 13.3846C0 24.2763 10.9091 32.5022 11.3741 32.8465C11.5575 32.9828 11.776 33.0559 12 33.0559C12.224 33.0559 12.4425 32.9828 12.6259 32.8465C13.0909 32.5022 24 24.2763 24 13.3846C23.9964 10.0099 22.731 6.77453 20.4813 4.38826C18.2316 2.002 15.1815 0.659712 12 0.655884ZM12 8.75597C12.863 8.75597 13.7067 9.02743 14.4243 9.53603C15.1419 10.0446 15.7012 10.7675 16.0315 11.6133C16.3617 12.4591 16.4482 13.3897 16.2798 14.2876C16.1114 15.1854 15.6958 16.0102 15.0856 16.6575C14.4753 17.3048 13.6978 17.7457 12.8513 17.9243C12.0048 18.1029 11.1275 18.0112 10.3301 17.6609C9.53276 17.3105 8.85125 16.7173 8.37177 15.9561C7.89229 15.1949 7.63636 14.3 7.63636 13.3846C7.63636 12.157 8.0961 10.9797 8.91444 10.1117C9.73278 9.24362 10.8427 8.75597 12 8.75597Z" />
</svg>