<svg xmlns="http://www.w3.org/2000/svg" fill="none" viewBox="7.07 5.79 37.8 14.27">
<g filter="url(#filter0_d_19_45)">
<path d="M13.9265 10.6983H11.632L11.6211 9.48724C11.5658 8.85408 11.5535 7.67101 10.6324 7.7638C9.82324 7.84499 9.84235 9.19727 9.8055 9.79222C9.70316 11.429 9.7093 13.1197 9.74751 14.764C9.76115 15.3671 9.78026 15.9771 9.85258 16.5775C9.9249 17.1779 10.1501 17.9782 10.9551 17.7736C11.8019 17.558 11.7418 16.3305 11.7848 15.6544V14.6419H13.9736V15.5957C14.0084 17.5307 13.1009 19.9323 10.8651 20.0578C7.76139 20.2318 7.15484 16.8818 7.08934 14.4822C7.06205 13.4759 7.0525 12.4333 7.10026 11.429C7.20942 9.13586 7.70203 5.95234 10.584 5.79678C12.143 5.71286 13.1616 6.59232 13.6044 8.03125C13.8685 8.88888 13.9408 9.80314 13.9265 10.6983Z" fill="white"/>
<path d="M14.3538 19.6943C14.3422 19.6867 14.3388 19.6779 14.336 19.6649C14.3094 19.5196 14.3633 19.3142 14.3238 19.1628C14.3374 14.788 14.2992 10.4159 14.3176 6.04179L14.3531 6.03019C15.5396 6.04452 16.7274 6.01314 17.9133 6.03019C18.6358 6.04043 19.3112 6.15983 19.9123 6.58284C20.9535 7.31493 21.1159 8.38407 21.1609 9.58147C21.221 11.1828 21.0722 13.1171 19.4327 13.8901C18.5976 14.2838 17.6717 14.1992 16.7711 14.2073V19.6936H14.3538V19.6943ZM16.7247 12.1605C17.3831 12.1871 18.0265 12.1332 18.4038 11.528C18.8125 10.8723 18.7757 9.36723 18.442 8.68359C18.1807 8.14663 17.7782 8.00881 17.2105 8.00813C17.0481 8.00813 16.8864 8.00745 16.724 8.00813V12.1612L16.7247 12.1605Z" fill="white"/>
<path d="M36.575 5.99544L36.5907 6.01454C36.5907 6.09846 36.6214 6.17351 36.6276 6.2588C36.8698 8.69454 37.0704 11.1419 37.3412 13.5708C37.3631 13.7673 37.3726 13.9652 37.4006 14.161L38.6355 6.00703C38.6437 5.99407 38.6574 5.9968 38.6703 5.99475C38.9385 5.96132 39.2646 6.03091 39.5368 5.98315L40.9253 5.98861L41.1716 7.77756C41.175 7.81781 41.1989 7.85807 41.2043 7.89696C41.4977 9.98747 41.7563 12.0828 42.0544 14.1719L43.0963 5.98315H44.8641L43.0069 19.6629L42.9973 19.6772C42.5122 19.6902 42.0244 19.6772 41.5386 19.682C41.5079 19.682 41.4793 19.6943 41.4458 19.695C41.1982 19.6977 40.9498 19.6922 40.7022 19.6936L39.4665 10.8969L38.1559 19.6834L35.89 19.6943L34.3153 5.99544H36.575Z" fill="white"/>
<path d="M28.1277 6.00775L28.1516 19.7066L25.7063 19.6991L25.6927 13.7987H23.9719L23.9835 19.6827H21.5485L21.5246 6.01935H23.9603L23.989 11.5411H25.6927L25.6988 6.00775H28.1277Z" fill="white"/>
<path d="M34.1222 5.99548V7.86767L30.9612 7.87926L30.9728 11.6345H33.3731L33.3847 13.8219H30.9728L30.9844 19.6711H28.5493L28.5261 6.00708L34.1222 5.99548Z" fill="white"/>
</g>
<defs>
<filter id="filter0_d_19_45" x="0.26665" y="-0.00874043" width="51.3974" height="27.8731" filterUnits="userSpaceOnUse" color-interpolation-filters="sRGB">
<feFlood flood-opacity="0" result="BackgroundImageFix"/>
<feColorMatrix in="SourceAlpha" type="matrix" values="0 0 0 0 0 0 0 0 0 0 0 0 0 0 0 0 0 0 127 0" result="hardAlpha"/>
<feOffset dy="1"/>
<feGaussianBlur stdDeviation="3.4"/>
<feComposite in2="hardAlpha" operator="out"/>
<feColorMatrix type="matrix" values="0 0 0 0 0 0 0 0 0 0 0 0 0 0 0 0 0 0 0.42 0"/>
<feBlend mode="normal" in2="BackgroundImageFix" result="effect1_dropShadow_19_45"/>
<feBlend mode="normal" in="SourceGraphic" in2="effect1_dropShadow_19_45" result="shape"/>
</filter>
</defs>
</svg>