<svg width="120" height="77" viewBox="0 0 120 77" fill="none" xmlns="http://www.w3.org/2000/svg">
<path d="M54.7232 26.8593C59.9836 26.285 61.3615 31.6023 61.6045 35.7437C61.8358 39.7028 62.12 49.1242 57.2456 50.5001C48.7277 52.9029 48.8159 41.0865 49.1413 35.7515C49.3647 32.0943 50.3388 27.3375 54.7212 26.8593H54.7232ZM54.9878 30.395C54.1862 30.6341 53.8628 32.5784 53.7981 33.2997C53.5335 36.2611 53.6354 39.4597 53.802 42.4251C53.8667 43.5697 53.6178 47.2681 55.5091 47.1466C56.593 47.076 56.8791 44.9123 56.9438 44.0656C57.1692 41.0786 57.1594 36.2886 56.9516 33.2938C56.8791 32.2589 56.5224 29.9384 54.9897 30.397L54.9878 30.395Z" fill="white"/>
<path d="M66.3221 27.367L70.6339 38.8169V27.367H73.9188V50.2669H70.7025L65.8419 37.0451V50.2669H62.557V27.367H66.3221Z" fill="white"/>
<path d="M35.9999 27.367V36.6355H38.8751V27.367H42.846V50.2669H38.8751V40.5221L38.6693 40.3163H35.9999V50.063L35.7961 50.2669H31.8938V27.367H35.9999Z" fill="white"/>
<path d="M7.66513 50.2668L10.8912 27.3629H16.8376L19.7109 50.2668H16.0831C15.9341 50.1825 15.9204 50.0688 15.8851 49.9198C15.5245 48.4166 15.7048 46.6213 15.203 45.1454L11.6948 45.214L11.0872 50.2668H7.66513ZM14.9208 41.8155L13.6194 31.0457L12.1828 41.8155H14.9208Z" fill="white"/>
<path d="M30.5258 33.6368H26.9665C26.8607 32.8214 26.847 31.2378 26.1414 30.7086C25.038 29.8796 23.7836 30.74 23.5758 31.9649C23.1074 34.75 27.5663 37.2666 29.2244 39.0874C32.7248 42.9347 31.541 50.6177 25.524 50.8117C21.2416 50.9489 19.4325 47.5739 19.5717 43.7246H23.5406C23.5386 44.7888 23.5504 46.9741 24.8733 47.2387C26.1904 47.5014 27.1919 46.3901 27.2409 45.1494C27.3624 42.0821 21.6257 39.4362 20.3243 36.5002C18.1076 31.4985 21.7512 24.8465 27.5114 27.2983C28.9304 27.902 30.5238 30.1383 30.5238 31.6612V33.6368H30.5258Z" fill="white"/>
<path d="M9.30761 27.367V30.5029H4.10595V36.7727H8.07482V40.4535H4.10595V50.2669H0.203707L-0.00012207 50.063V27.367H9.30761Z" fill="white"/>
<path d="M48.0456 27.367H44.0767V50.2669H48.0456V27.367Z" fill="white"/>
<path d="M3.82577 53.6029L5.12717 67.0991L7.44776 53.5951L11.0834 53.6029L12.9983 67.0971L14.6427 53.6029H17.6551L14.6427 76.5028L10.8914 76.5126L8.69035 61.917L6.50894 76.3754C6.35802 76.5989 3.13981 76.5655 2.65962 76.3754L0 53.6029H3.83362H3.82577Z" fill="white"/>
<path d="M43.3869 53.603V63.2812L46.9461 53.603H50.7798L47.6909 61.0292L51.1914 76.5029H47.3577L45.3037 66.4151C44.9921 66.3602 45.0862 66.4308 44.998 66.5895C44.7941 66.9619 43.3869 70.2291 43.3869 70.4369V76.2991L43.1811 76.5029H39.2789V53.603H43.385H43.3869Z" fill="white"/>
<path d="M38.1833 53.603V56.7389H32.8464V63.0087H36.8152V66.4171H33.0502L32.8464 66.6209V73.3689H38.4576V76.5029H28.8755V53.603H38.1833Z" fill="white"/>
<path d="M27.7799 53.603V56.7389H22.441V63.0087H26.4119V66.4171H22.6468L22.441 66.6209V73.3689H28.0543V76.2991L27.8485 76.5029H18.4722V53.603H27.7799Z" fill="white"/>
<path d="M17.7511 0.0432857C25.438 -0.795567 24.9695 10.7857 24.6246 15.7483C24.313 20.2522 22.4157 24.9952 16.9514 23.7997C11.8438 22.6825 11.9556 13.5061 12.1633 9.47254C12.3573 5.73102 13.1844 0.541109 17.7511 0.0413258V0.0432857ZM19.2406 3.86908C18.2489 2.92439 17.4571 3.93572 17.167 4.91177C16.5183 7.09121 16.6359 14.5919 16.826 17.1104C16.8966 18.0414 17.1905 20.2914 18.4037 20.3267C19.6405 20.3619 19.8384 18.551 19.956 17.6396C20.2951 15.0035 20.4225 7.4636 19.7992 5.0176C19.711 4.67069 19.4954 4.11015 19.2426 3.86908H19.2406Z" fill="white"/>
<path d="M111.689 0.550964L115.932 12.0009V0.550964H119.217V23.4509H115.795L111.14 10.2291V23.4509H107.855V0.550964H111.689Z" fill="white"/>
<path d="M52.2106 0.550964L56.5225 12.0009V0.550964H59.8073V23.4509H56.5911L51.7304 10.2291V23.4509H48.4456V0.550964H52.2106Z" fill="white"/>
<path d="M65.1463 0.550964V9.8195H68.0215V0.550964H72.1276V23.247L71.9218 23.4509H68.0215V13.5003H65.1463V23.4509H61.2441L61.0402 23.247V0.550964H65.1463Z" fill="white"/>
<path d="M96.219 8.59455H92.5226C92.5285 7.52638 92.6578 3.86914 91.329 3.57907C89.5886 3.19689 89.4337 6.13679 89.3691 7.29511C89.2123 10.0625 89.1927 13.955 89.3691 16.7126C89.4377 17.7964 89.6219 20.3267 91.086 20.3267C91.8543 20.3267 92.797 19.1076 92.797 18.4785V16.2285H91.429V12.6849H96.221V23.4528L94.7099 23.3901L94.167 21.681C93.091 23.0177 92.1561 24.0016 90.2824 23.984C83.8636 23.9212 84.4124 12.0715 85.02 7.86741C85.6158 3.75547 87.3582 -1.03658 92.5324 0.204063C94.6413 0.709727 96.221 3.3184 96.221 5.39005V8.59259L96.219 8.59455Z" fill="white"/>
<path d="M72.8116 23.4508L76.1121 0.564636L81.9645 0.568556L84.8593 23.4488H81.1629L80.4593 18.2883L76.9216 18.2707C76.6374 19.8504 76.6864 21.5359 76.3689 23.1039C76.3375 23.2587 76.312 23.3626 76.167 23.4488H72.8136L72.8116 23.4508ZM80.2045 14.9996L78.7678 4.22972L77.3312 14.9996H80.2064H80.2045Z" fill="white"/>
<path d="M29.691 14.1823V23.247L29.4852 23.4509H25.5829V0.550964H32.3584C33.2718 0.550964 34.9808 1.40746 35.6296 2.06599C37.7326 4.19841 37.5013 10.3918 35.5727 12.6124C35.0377 13.2278 33.4188 14.1843 32.6328 14.1843H29.689L29.691 14.1823ZM29.691 3.8221V10.774C32.9778 11.2777 33.4207 7.82037 32.6642 5.42728C32.2056 3.97889 31.0943 3.78682 29.691 3.8221Z" fill="white"/>
<path d="M11.4852 8.3202H7.65156V5.3901C7.65156 5.25878 7.35561 4.30821 7.26937 4.13574C6.80095 3.21261 5.7073 3.08913 5.12716 3.96522C4.66462 4.66492 4.54114 6.79537 4.49802 7.70086C4.37455 10.2919 4.36867 13.5748 4.49802 16.1639C4.5333 16.8792 4.62542 18.3237 4.84689 18.9509C5.42899 20.607 7.24193 20.3307 7.69664 18.7921C7.74368 18.6295 7.92595 17.7593 7.92595 17.6573V14.8625H11.6224C11.8086 17.9435 11.0873 22.7199 7.57708 23.7155C-0.535092 26.0145 -0.180344 13.5885 0.117566 8.79255C0.366478 4.78252 1.83055 -0.383875 6.88131 0.159028C9.66833 0.458898 11.4852 3.47524 11.4852 6.07215V8.32216V8.3202Z" fill="white"/>
<path d="M47.3499 0.550964V3.68686H42.011V9.9567H45.9818V13.365H42.011V20.3169H47.4871V23.4509H38.1107L37.9049 23.247V0.550964H47.3499Z" fill="white"/>
<path d="M106.76 0.550964V3.68686H101.421V9.9567H105.391V13.365H101.626L101.421 13.5689V20.3169H107.034V23.4509H97.4518V0.550964H106.76Z" fill="white"/>
</svg>
