<svg width="370" height="101" viewBox="0 0 370 101" fill="none" xmlns="http://www.w3.org/2000/svg">
<path d="M303.631 100.399C303.569 100.401 303.507 100.396 303.451 100.379L295.781 98.7183C295.53 98.6628 295.329 98.4866 295.266 98.2563C295.131 97.7646 294.859 97.2954 294.564 96.8018C294.035 95.9137 293.432 94.9078 293.726 93.6319C293.792 93.3475 294.062 93.145 294.38 93.1359L294.56 93.1306L296.055 88.0355C295.782 87.9556 295.58 87.7291 295.571 87.4533L295.549 86.8262C295.251 86.8348 294.983 86.6667 294.877 86.4125L294.293 84.98L293.409 85.0054C293.091 85.0145 292.814 84.8282 292.722 84.5544C292.395 83.5475 291.797 82.8681 291.163 82.1457C290.68 81.5951 290.175 81.0258 289.832 80.3206C289.795 80.2464 289.778 80.165 289.776 80.0899L289.709 78.2092C289.329 78.2202 289.008 77.9469 288.996 77.6022L288.93 75.7215C288.57 75.7316 288.264 75.4893 288.218 75.1647L287.337 68.2364L287.283 68.2379C286.902 68.2489 286.581 67.976 286.569 67.6313L286.537 66.7159L284.73 65.7013C284.532 65.5879 284.414 65.3964 284.407 65.1895L284.098 56.4122C283.904 56.418 283.715 56.3481 283.579 56.2202C283.443 56.0924 283.375 55.9186 283.389 55.7424L284.845 38.128C284.868 37.8072 285.157 37.5604 285.509 37.5502L285.487 36.9232C285.475 36.5784 285.776 36.2873 286.156 36.2763L286.247 36.2737L286.719 32.4066C286.757 32.098 287.039 31.8577 287.384 31.8476L287.318 29.9668C287.306 29.6219 287.607 29.3308 287.987 29.3198L287.921 27.439C287.909 27.0942 288.21 26.803 288.59 26.792L288.502 24.2842C288.49 23.9394 288.791 23.6483 289.171 23.6373L289.149 23.0103C289.137 22.6655 289.438 22.3744 289.818 22.3633L289.956 22.3594L291.04 17.1692C291.082 16.9798 291.208 16.8254 291.392 16.7323L292.058 16.4055C292.16 16.3523 292.269 16.3052 292.371 16.2521L292.34 15.3869C292.334 15.205 292.411 15.0334 292.552 14.9101L298.557 9.75314C298.994 9.22582 299.433 8.69223 299.863 8.16515C300.302 7.63783 300.74 7.11051 301.171 6.58344C301.297 6.42913 301.495 6.33558 301.702 6.32954L302.393 6.30953C302.383 6.02117 302.589 5.76416 302.897 5.68617L305.119 5.11351L305.114 4.97558C305.102 4.63077 305.403 4.33963 305.783 4.32862L307.857 4.26858C307.845 3.92372 308.146 3.6326 308.526 3.62159L312.992 3.49227L314.11 1.85326C314.236 1.67391 314.446 1.56739 314.674 1.56078L315.365 1.54077C315.357 1.28372 315.521 1.04674 315.787 0.944893C317.61 0.233152 319.284 0.416875 320.764 0.581127C321.299 0.640945 321.806 0.695295 322.312 0.712028C322.63 0.721632 322.901 0.933455 322.966 1.21398L323.674 4.43179C328.659 4.29998 332.252 4.95533 335.952 6.66818C336.178 6.77461 336.323 6.97751 336.331 7.20948L337.022 7.18946C337.285 7.18185 337.532 7.31275 337.657 7.5225C337.782 7.73229 337.9 7.93596 338.025 8.14571L338.239 8.50355L340.712 8.99046C340.851 9.01779 340.978 9.08315 341.079 9.18067L345.33 13.4004L348.098 15.1654C348.275 15.2795 348.385 15.4583 348.392 15.6589L348.426 16.5994L350.974 18.2201C351.151 18.3342 351.261 18.513 351.268 18.7136L351.298 19.5788L351.607 19.7079C351.839 19.8079 352.078 19.9014 352.31 20.0014C352.548 20.1011 352.708 20.3162 352.717 20.5544L352.754 21.6139C353.332 22.3189 353.99 22.9212 354.684 23.56C356.293 25.0385 357.959 26.5655 358.499 29.3175C359.798 29.6752 360.503 30.2197 361.236 30.7946C361.613 31.085 361.997 31.3876 362.492 31.6808C362.682 31.7946 362.8 31.9794 362.807 32.1863L368.337 32.0261C368.683 32.0161 368.988 32.2458 369.041 32.558C369.119 33.0139 369.196 33.4259 369.273 33.8316C369.596 35.5418 369.876 37.0211 370 40.1366C370.008 40.3686 369.877 40.5857 369.66 40.6987C368.763 41.1765 367.091 42.4237 366.494 43.1439C366.367 43.2981 366.17 43.3855 365.962 43.3914L362.506 43.4915L363.014 57.9113C363.026 58.256 362.725 58.5471 362.345 58.5581L362.389 59.812C362.401 60.1572 362.1 60.4483 361.72 60.4593L361.616 60.4622L361.136 63.7144C361.091 64.017 360.808 64.2512 360.47 64.2607L360.492 64.8879C360.501 65.1259 360.356 65.3499 360.125 65.4634C359.893 65.5769 359.669 65.6836 359.445 65.7966L359.145 65.9436L359.176 66.8087C359.188 67.1535 358.886 67.4446 358.506 67.4556L358.551 68.7095C358.563 69.0542 358.262 69.3453 357.882 69.3563L357.904 69.9835C357.916 70.3282 357.615 70.6193 357.234 70.6303L357.279 71.8842C357.291 72.2289 356.99 72.5205 356.609 72.5315L356.631 73.1582C356.643 73.5029 356.343 73.794 355.962 73.805L356.007 75.0589C356.019 75.4041 355.717 75.6952 355.337 75.7062L355.171 75.711C354.534 78.6162 356.425 82.0255 357.815 84.5525C359.027 86.7452 359.825 88.1907 359.139 89.1391C357.389 91.1231 354.21 91.4535 351.037 91.5267C350.83 91.5325 350.633 91.4501 350.496 91.3098C349.677 90.4423 348.825 90.0152 347.355 89.738C347.09 89.6892 346.883 89.5006 346.826 89.2636L346.153 86.6533L346.029 86.6572C345.649 86.6682 345.328 86.3953 345.315 86.0501L343.933 86.0903C343.945 86.435 343.644 86.7261 343.264 86.7371L342.31 86.7649L342.167 87.0387C342.057 87.2489 341.947 87.4658 341.844 87.6822C341.734 87.8986 341.496 88.0437 341.234 88.0513L340.543 88.071C340.555 88.4162 340.254 88.7072 339.873 88.7183L338.92 88.7456L338.777 89.0199C338.667 89.2301 338.557 89.4465 338.453 89.6629C338.402 89.7711 338.316 89.8616 338.214 89.9209C334.319 92.3057 325.323 96.426 319.14 94.9356C317.967 94.6493 316.793 94.3069 315.66 93.9694C312.863 93.1464 309.975 92.2952 306.602 92.2047L304.267 99.9665C304.186 100.238 303.916 100.422 303.619 100.431L303.631 100.399ZM296.488 97.587L303.119 99.0205L305.417 91.3793C305.498 91.1068 305.788 90.9101 306.086 90.9139C309.906 90.9225 313.052 91.8485 316.094 92.7457C316.114 92.7516 316.135 92.7576 316.155 92.7635C317.3 93.0998 318.386 93.4188 319.504 93.6884C325.122 95.0447 333.492 91.2313 337.286 88.9438C337.37 88.7781 337.455 88.6187 337.539 88.453L337.856 87.8287C337.966 87.6123 338.203 87.4672 338.466 87.4596L339.157 87.4399C339.145 87.0947 339.446 86.8036 339.826 86.7926L340.78 86.7654L340.929 86.4661L341.246 85.8418C341.356 85.6249 341.593 85.4803 341.856 85.4727L342.547 85.4526C342.535 85.1078 342.836 84.8167 343.216 84.8057L345.981 84.7253C346.362 84.7143 346.683 84.9877 346.695 85.3324C347.026 85.3228 347.317 85.5277 347.39 85.8207L348.095 88.5555C349.491 88.8729 350.47 89.3775 351.344 90.2249C354.109 90.1445 356.735 89.8491 358.039 88.3678C358.247 88.0771 357.281 86.3269 356.623 85.1351C356.614 85.1178 356.604 85.1005 356.595 85.0834C356.594 85.0825 356.594 85.0816 356.593 85.0807C355.027 82.2457 352.877 78.3556 353.973 74.8981C354.054 74.6386 354.318 74.4552 354.615 74.4466L354.57 73.1927C354.558 72.848 354.86 72.5569 355.24 72.5459L355.218 71.9187C355.206 71.574 355.507 71.2829 355.887 71.2719L355.843 70.018C355.831 69.6732 356.132 69.3821 356.512 69.3711L356.49 68.7439C356.478 68.3992 356.779 68.1081 357.159 68.0971L357.115 66.8432C357.103 66.4985 357.404 66.2074 357.784 66.1964L357.762 65.5692C357.753 65.3313 357.898 65.1072 358.129 64.9937L358.796 64.6672C358.898 64.6141 359.007 64.5667 359.109 64.5135L359.078 63.6484C359.066 63.3037 359.367 63.0126 359.748 63.0016L359.851 62.9987L360.332 59.7464C360.377 59.4438 360.658 59.2097 360.997 59.1996L360.953 57.9457C360.941 57.601 361.242 57.3099 361.623 57.2989L361.115 42.8792C361.103 42.5343 361.404 42.2432 361.784 42.2322L365.613 42.1213C366.334 41.3661 367.662 40.3612 368.61 39.794C368.478 37.0051 368.221 35.613 367.916 34.0152C367.873 33.7717 367.823 33.5284 367.779 33.2724L362.166 33.4349C361.786 33.4459 361.465 33.1728 361.453 32.828L361.442 32.5208C361.024 32.2541 360.685 31.991 360.374 31.7499C360.363 31.7414 360.352 31.7328 360.341 31.7243C359.594 31.1434 358.997 30.6838 357.727 30.4067C357.449 30.3457 357.241 30.1384 357.204 29.8822C356.815 27.2764 355.306 25.8892 353.704 24.4231C353.698 24.418 353.693 24.4129 353.687 24.4078C352.942 23.7251 352.169 23.0176 351.507 22.1709C351.428 22.0728 351.382 21.9486 351.378 21.8295L351.347 20.9643C351.241 20.9172 351.129 20.8765 351.024 20.8294L350.336 20.5418C350.097 20.442 349.937 20.227 349.929 19.9887L349.895 19.0483L347.347 17.4276C347.17 17.3135 347.061 17.1347 347.053 16.9341L347.02 15.9936L344.472 14.3729C344.429 14.3491 344.394 14.3187 344.358 14.2821L340.206 10.1599L337.636 9.65695C337.433 9.61884 337.263 9.50456 337.167 9.33785L336.807 8.73326L336.638 8.44322L335.684 8.47085C335.304 8.48186 334.983 8.20872 334.971 7.86391L334.962 7.61313C331.468 6.07005 328.002 5.50515 323.137 5.69622C322.778 5.69412 322.494 5.49524 322.428 5.18964L321.711 1.92184C321.336 1.89504 320.961 1.84942 320.593 1.80988C319.308 1.6651 318.078 1.53125 316.77 1.92685L316.776 2.10866C316.788 2.45349 316.487 2.74462 316.107 2.75563L315.098 2.78486L313.979 4.42389C313.854 4.60324 313.644 4.70972 313.416 4.71632L309.268 4.83645C309.28 5.18126 308.979 5.4724 308.599 5.48341L306.525 5.5435C306.535 5.83186 306.33 6.08886 306.021 6.16681L303.799 6.73951L303.804 6.87745C303.816 7.22226 303.515 7.5134 303.135 7.52441L302.084 7.55481C301.713 8.00491 301.341 8.455 300.976 8.89858C300.525 9.43882 300.08 9.98515 299.635 10.5252C299.608 10.5511 299.589 10.583 299.555 10.6028L293.732 15.6039L293.766 16.5757C293.774 16.8139 293.63 17.0377 293.399 17.1511C293.168 17.2645 292.943 17.3714 292.719 17.4846L292.331 17.6716L291.206 23.0637C291.147 23.3541 290.871 23.563 290.546 23.5723L290.568 24.1993C290.58 24.5441 290.279 24.8352 289.899 24.8462L289.987 27.3541C289.999 27.6989 289.698 27.99 289.318 28.001L289.384 29.8819C289.396 30.2267 289.095 30.5178 288.715 30.5288L288.781 32.4097C288.793 32.7545 288.492 33.0456 288.112 33.0566L288.022 33.0592L287.55 36.9263C287.512 37.2349 287.23 37.4753 286.884 37.4853L286.906 38.1122C286.918 38.457 286.617 38.7482 286.237 38.7592L286.168 38.7612L284.814 55.1239C285.16 55.1516 285.44 55.4068 285.451 55.7266L285.77 64.7926L287.577 65.8072C287.775 65.9206 287.892 66.1117 287.9 66.3185L287.922 66.9457C288.282 66.9351 288.587 67.1774 288.633 67.5025L289.514 74.4303L289.569 74.4289C289.949 74.4179 290.271 74.6908 290.283 75.0359L290.349 76.9166C290.729 76.9055 291.05 77.1784 291.062 77.5236L291.146 79.906C291.42 80.4182 291.816 80.8707 292.233 81.3475L292.235 81.349C292.244 81.3593 292.253 81.3695 292.262 81.3798C292.825 82.0206 293.453 82.7356 293.868 83.7242L294.74 83.6993C295.037 83.6907 295.306 83.8583 295.412 84.1125L295.995 85.5454L296.189 85.5397C296.569 85.5287 296.89 85.8021 296.902 86.1468L296.924 86.774C297.145 86.7673 297.349 86.8558 297.486 87.0086C297.623 87.1613 297.671 87.3672 297.616 87.5572L295.763 93.8866C295.682 94.1523 295.419 94.3424 295.115 94.351L295.032 94.3534C295.054 94.9801 295.392 95.5479 295.775 96.1895C295.782 96.2017 295.789 96.2139 295.796 96.2262C296.048 96.6468 296.309 97.0854 296.487 97.5683L296.488 97.587ZM321.251 89.8472C321.251 89.8472 321.23 89.8482 321.223 89.8482C318.136 89.8122 316.228 89.0764 314.383 88.3582C314.377 88.3558 314.37 88.3534 314.364 88.351C312.694 87.7054 311.104 87.0909 308.67 87.0737C308.29 87.0722 307.989 86.7922 307.984 86.4537C307.947 81.4716 309.105 78.0053 310.339 74.3417L310.827 68.7487C310.857 68.4275 311.139 68.1809 311.492 68.1708L311.589 68.168L312.613 60.5129C312.657 60.2041 312.94 59.97 313.279 59.9604L313.382 59.9575L313.863 56.7052C313.896 56.4596 314.089 56.2528 314.35 56.1829L330.116 51.9606C330.466 51.8687 330.838 52.0339 330.96 52.3441L331.543 53.7771L331.737 53.7713C332.117 53.7603 332.438 54.0332 332.45 54.3784L332.494 55.6323C332.84 55.6223 333.138 55.8458 333.198 56.1513L333.942 59.9834L334.031 59.9805C334.411 59.9695 334.733 60.2429 334.745 60.5876L334.767 61.2148C335.147 61.2038 335.468 61.4767 335.48 61.8214L335.511 62.6865L335.82 62.8158C336.052 62.9159 336.29 63.0092 336.522 63.1093C336.761 63.2089 336.921 63.4243 336.929 63.6623L336.973 64.9162C337.353 64.9052 337.674 65.1785 337.686 65.5232L337.731 66.7772C338.111 66.7661 338.432 67.039 338.444 67.3838L338.51 69.2648C338.891 69.2538 339.211 69.5267 339.223 69.8719L339.245 70.4986C339.626 70.4876 339.947 70.761 339.959 71.1057L340.021 72.8609C340.117 73.0467 340.264 73.287 340.433 73.5709C340.44 73.5811 340.446 73.5913 340.452 73.6015C341.468 75.3011 343.148 78.1105 342.295 80.075C342.193 80.3106 341.949 80.4618 341.673 80.47L341.355 80.4791C341.269 80.6069 341.19 80.7223 341.118 80.8185C340.727 81.3777 340.486 82.3386 340.395 83.7012C340.373 84.0282 340.084 84.2815 339.724 84.2915C331.497 84.4797 325.29 85.4502 321.768 89.6002C321.642 89.7481 321.451 89.8415 321.244 89.8477L321.251 89.8472ZM309.367 85.8423C311.711 85.9692 313.345 86.5997 314.924 87.2125C316.649 87.878 318.284 88.5148 320.895 88.59C324.677 84.3634 330.88 83.2674 339.058 83.0558C339.185 81.339 339.28 81.1163 339.952 80.1554C340.071 79.9888 340.21 79.7906 340.367 79.5412C340.485 79.3559 340.702 79.2429 340.937 79.2357L341.117 79.2305C341.37 77.7549 339.988 75.4539 339.215 74.1646C338.988 73.782 338.804 73.4862 338.699 73.2568C338.662 73.1826 338.645 73.1017 338.642 73.0265L338.599 71.7726C338.219 71.7836 337.897 71.5103 337.885 71.1656L337.863 70.5388C337.483 70.5499 337.162 70.2765 337.15 69.9318L337.083 68.0512C336.703 68.0622 336.382 67.7888 336.37 67.4441L336.326 66.1902C335.946 66.2012 335.625 65.9278 335.613 65.5831L335.56 64.0912C335.455 64.0438 335.342 64.0032 335.237 63.9562L334.549 63.6685C334.31 63.5689 334.15 63.3535 334.142 63.1155L334.119 62.4883C333.739 62.4993 333.418 62.2264 333.406 61.8817L333.384 61.2545C333.039 61.2646 332.74 61.041 332.681 60.7351L331.937 56.9035L331.847 56.9058C331.467 56.9169 331.146 56.644 331.134 56.2992L331.09 55.0453C330.792 55.054 330.524 54.8859 330.418 54.6317L329.887 53.3227L315.17 57.2635L314.673 60.6417C314.628 60.9443 314.345 61.1784 314.007 61.188L313.91 61.1908L312.886 68.8459C312.841 69.1547 312.559 69.3888 312.22 69.3984L312.151 69.4003L311.708 74.5031C311.71 74.5471 311.697 74.5912 311.678 74.6357C310.52 78.0958 309.423 81.3471 309.367 85.8361V85.8423ZM299.336 76.6753L298.645 76.6954C298.354 76.7035 298.086 76.5484 297.981 76.3004C297.326 74.8253 297.111 73.0304 296.905 71.2982C296.904 71.294 296.903 71.2898 296.903 71.2856C296.61 68.8571 296.334 66.5614 294.964 65.2982C294.842 65.1824 294.767 65.0339 294.762 64.8774L294.651 61.7424C294.639 61.3977 294.94 61.1066 295.32 61.0956L295.735 61.0836C296.938 60.0633 298.224 60.0576 299.269 60.0586C299.844 60.0609 300.356 60.0585 300.814 59.9073L300.807 59.6813C300.794 59.3366 301.095 59.0455 301.476 59.0345L302.167 59.0144C302.547 59.0033 302.868 59.2767 302.88 59.6214L303.013 63.3831C303.025 63.7279 302.724 64.0189 302.344 64.03L302.274 64.0319L301.831 69.1346C301.801 69.4554 301.519 69.702 301.167 69.7125L301.321 74.1009C301.33 74.3393 301.185 74.5629 300.954 74.6764C300.723 74.7899 300.498 74.8966 300.274 75.0101L299.974 75.1566L300.005 76.0217C300.017 76.3669 299.716 76.658 299.336 76.669V76.6753ZM296.143 64.6112C297.687 66.1983 297.99 68.7248 298.284 71.1703C298.412 72.2461 298.548 73.3531 298.784 74.3566C298.831 74.3111 298.885 74.278 298.946 74.245L299.613 73.9185C299.715 73.8653 299.823 73.818 299.925 73.7648L299.763 69.138C299.75 68.7933 300.052 68.5022 300.432 68.4911L300.501 68.4892L300.944 63.3865C300.974 63.0657 301.256 62.8191 301.609 62.8086L301.545 61.0032C300.781 61.3263 299.985 61.3244 299.273 61.3263C298.263 61.3239 297.384 61.3307 296.534 62.146C296.407 62.269 296.236 62.3365 296.05 62.3423L296.129 64.6179L296.143 64.6112ZM349.599 69.5713C349.544 69.5727 349.482 69.5684 349.426 69.5574C349.224 69.5133 349.046 69.3927 348.957 69.2194C348.38 68.1507 347.314 66.1605 346.714 64.8602C346.684 64.7917 346.66 64.7175 346.658 64.6356L346.613 63.3817C346.233 63.3927 345.912 63.1198 345.9 62.7751L345.856 61.5212C345.476 61.5322 345.155 61.2588 345.143 60.9141L345.099 59.6602C344.718 59.6712 344.397 59.3983 344.385 59.0531L344.363 58.4264C343.983 58.4374 343.662 58.1641 343.65 57.8193L343.584 55.9387C343.245 55.9483 342.947 55.7372 342.88 55.4317L342.172 52.2139L342.068 52.2168C341.868 52.2225 341.672 52.1469 341.535 52.0128C341.399 51.8788 341.337 51.692 341.365 51.5091L341.924 47.7278C341.969 47.4314 342.238 47.204 342.562 47.182C344.917 47.0384 347.942 46.2919 348.945 45.3026C349.072 45.1797 349.25 45.1055 349.429 45.1003L353.577 44.9802C353.957 44.9692 354.278 45.2423 354.29 45.5871L354.303 45.9382C355.165 46.6476 355.272 47.1279 355.329 47.7599C355.329 47.762 355.329 47.7641 355.329 47.7663C355.352 48.0272 355.377 48.3017 355.548 48.6887L355.783 48.682C356.164 48.671 356.485 48.9439 356.497 49.2886L356.529 50.204L358.336 51.2185C358.534 51.332 358.651 51.5235 358.658 51.7303L358.681 52.357C359.061 52.346 359.382 52.6194 359.394 52.9641L359.416 53.5908C359.616 53.5851 359.813 53.6612 359.949 53.7953C360.085 53.9293 360.147 54.1161 360.119 54.2985L359.56 58.0803C359.515 58.3829 359.233 58.617 358.894 58.627L358.791 58.6299L358.31 61.8822C358.287 62.021 358.216 62.1546 358.109 62.2518C356.86 63.3424 355.619 64.4388 354.377 65.5357C353.176 66.5933 351.974 67.6447 350.773 68.7028C350.7 68.7928 350.661 68.8502 350.641 68.8885C350.578 69.0532 350.437 69.1892 350.259 69.2572C350.212 69.2835 350.138 69.3362 350.01 69.4276C349.895 69.5124 349.751 69.5607 349.599 69.565V69.5713ZM348.036 64.4766C348.493 65.4548 349.204 66.8087 349.76 67.8472C350.975 66.7762 352.19 65.7119 353.411 64.6409C354.6 63.5962 355.788 62.5515 356.976 61.5126L357.5 57.9453C357.545 57.6432 357.827 57.409 358.166 57.399L358.27 57.3961L358.644 54.8625C358.318 54.8218 358.066 54.5714 358.056 54.2645L358.034 53.6373C357.654 53.6483 357.333 53.3754 357.32 53.0302L357.288 52.1153L355.481 51.1007C355.283 50.9868 355.166 50.7958 355.158 50.5889L355.137 49.9622C354.867 49.9699 354.62 49.8387 354.502 49.6228C354.037 48.8079 353.99 48.2693 353.949 47.8753C353.906 47.4434 353.893 47.2682 353.175 46.724C353.026 46.6091 352.936 46.4422 352.93 46.2604L349.743 46.3527C348.379 47.4841 345.566 48.1807 343.214 48.3995L342.834 50.9586C343.118 50.994 343.354 51.1946 343.411 51.4565L344.12 54.6743L344.224 54.6709C344.604 54.6599 344.925 54.9333 344.937 55.278L345.003 57.1591C345.384 57.1481 345.705 57.421 345.717 57.7657L345.739 58.3929C346.119 58.3819 346.44 58.6548 346.452 58.9995L346.496 60.2534C346.877 60.2424 347.197 60.5158 347.21 60.8605L347.254 62.1144C347.634 62.1034 347.955 62.3768 347.967 62.7215L348.029 64.4829L348.036 64.4766ZM294.327 52.3441C294.147 52.3494 293.966 52.2919 293.83 52.1765C293.687 52.0616 293.612 51.8946 293.613 51.7184C293.599 48.5499 293.789 45.9083 294.743 43.3264C294.838 43.0789 295.088 42.9085 295.379 42.9001L295.475 42.8973L296.5 35.2425C296.544 34.9337 296.826 34.6995 297.165 34.6897L297.121 33.4359C297.109 33.091 297.41 32.7999 297.79 32.7889L297.724 30.9081C297.712 30.5632 298.013 30.2721 298.393 30.2611L298.476 30.2587L298.862 26.4757C298.612 26.4516 298.392 26.3073 298.295 26.0905C297.643 24.6785 296.971 22.7022 297.427 21.302C297.515 21.0422 297.771 20.859 298.069 20.8504L298.047 20.2235C298.034 19.8787 298.335 19.5875 298.716 19.5765L298.583 15.8149C298.571 15.47 298.872 15.1789 299.253 15.1679L299.377 15.1643L299.865 12.5205C299.917 12.2241 300.192 12.0027 300.525 11.9931C300.512 11.6483 300.813 11.3572 301.194 11.3462L311.563 11.0459C311.749 11.0405 311.931 11.1042 312.067 11.2195C312.203 11.3349 312.277 11.4959 312.277 11.6653C312.316 17.1179 311.161 21.2558 309.972 25.0243L309.528 31.8716C309.505 32.1986 309.217 32.4517 308.857 32.4621L308.901 33.716C308.913 34.0608 308.612 34.352 308.232 34.363L308.129 34.366L305.972 48.9635C305.933 49.2407 305.692 49.461 305.389 49.5012C303.521 49.7547 302.113 50.2738 300.628 50.8215C300.618 50.825 300.608 50.8286 300.599 50.8322C300.591 50.8349 300.584 50.8376 300.576 50.8404C298.801 51.4985 296.961 52.1805 294.361 52.3307C294.354 52.3312 294.347 52.3312 294.34 52.3312L294.327 52.3441ZM295.913 44.1398C295.206 46.2501 295.014 48.4522 295 51.0318C297 50.8235 298.496 50.2658 300.067 49.6865C301.446 49.1761 302.867 48.6514 304.663 48.3488L306.831 33.6818C306.876 33.3793 307.158 33.1452 307.497 33.1354L307.453 31.8815C307.441 31.5367 307.741 31.2455 308.122 31.2345L308.184 31.2327L308.597 24.8884C308.596 24.8445 308.608 24.794 308.62 24.7497C309.791 21.057 310.849 17.3173 310.895 12.3266L301.929 12.5863C301.941 12.9311 301.64 13.2222 301.26 13.2332L301.135 13.2369L300.648 15.8806C300.596 16.177 300.32 16.3984 299.988 16.408L300.121 20.1697C300.133 20.5145 299.831 20.8057 299.451 20.8167L299.473 21.4436C299.485 21.7884 299.184 22.0796 298.804 22.0906L298.673 22.0944C298.603 22.8558 298.856 23.9342 299.398 25.2113L299.606 25.2053C299.806 25.1995 299.996 25.2693 300.132 25.4034C300.268 25.5313 300.337 25.7113 300.315 25.8877L299.8 30.9232C299.77 31.2379 299.481 31.4847 299.135 31.4947L299.202 33.3756C299.214 33.7204 298.913 34.0116 298.532 34.0226L298.577 35.2765C298.589 35.6213 298.288 35.9124 297.908 35.9234L297.811 35.9262L296.786 43.5811C296.742 43.8899 296.459 44.124 296.121 44.1338L295.92 44.1396L295.913 44.1398ZM318.301 45.3742C318.134 45.379 317.974 45.3272 317.839 45.2307C317.676 45.1099 317.586 44.9305 317.586 44.736C317.619 42.3376 319.268 33.9304 320.769 32.3431C320.848 32.2404 320.894 32.1763 320.921 32.1379C320.984 31.9728 321.125 31.837 321.302 31.7691C321.349 31.7426 321.424 31.6903 321.552 31.5987C321.734 31.4679 321.982 31.4293 322.206 31.4982C322.43 31.567 322.595 31.7317 322.657 31.9432C323.058 33.4098 323.678 34.6517 324.278 35.8533C324.297 35.8915 324.316 35.9296 324.335 35.9677C325.355 38.0029 326.405 40.1 326.529 43.2532C326.54 43.5541 326.314 43.8242 325.984 43.8903L318.425 45.3644C318.384 45.3718 318.342 45.3793 318.301 45.3805V45.3742ZM321.669 33.3588C320.73 34.7855 319.29 40.8646 319.019 43.9664L325.122 42.7793C324.919 40.1619 324.025 38.374 323.08 36.4873C322.589 35.5036 322.083 34.5016 321.676 33.3586L321.669 33.3588ZM340.936 39.6981L337.479 39.7981C337.182 39.8067 336.913 39.6388 336.807 39.3846L336.149 37.7719C336.001 37.7071 335.847 37.6489 335.699 37.5841L335.011 37.2965C334.8 37.2085 334.655 37.037 334.614 36.831L333.87 32.9992L333.78 33.0018C333.4 33.0128 333.079 32.7397 333.067 32.3949L332.956 29.2601C332.576 29.2711 332.255 28.9981 332.243 28.6532L332.199 27.3993C331.818 27.4104 331.497 27.1372 331.485 26.7924L331.463 26.1655C331.083 26.1765 330.762 25.9034 330.75 25.5585L330.706 24.3047C330.381 24.314 330.097 24.1214 330.018 23.8413L327.673 15.8008C327.472 15.3924 327.264 15.0031 327.057 14.62C327.053 14.6124 327.049 14.6047 327.045 14.5971C326.227 13.0716 325.383 11.498 325.315 8.77113C325.308 8.57675 325.405 8.39194 325.567 8.26804C325.736 8.14389 325.955 8.09989 326.158 8.14423C327.538 8.43685 328.128 8.85913 328.696 9.27571C328.699 9.27781 328.702 9.27989 328.705 9.28199C329.021 9.50924 329.346 9.74243 329.848 9.98285C330.066 10.0895 330.212 10.2924 330.22 10.5181L330.242 11.145L330.933 11.125C331.244 11.116 331.527 11.2961 331.614 11.5697C332.03 12.794 332.446 13.2087 333.199 13.9526C333.278 14.0319 333.357 14.1112 333.436 14.1905L333.802 14.1799C334.182 14.1689 334.503 14.442 334.516 14.7868L334.549 15.7272L337.097 17.3479C337.274 17.462 337.384 17.6408 337.391 17.8414L337.424 18.7819L339.972 20.4026C340.149 20.5167 340.259 20.6955 340.266 20.8961L340.298 21.8115L342.106 22.826C342.304 22.9395 342.421 23.1307 342.428 23.3376L342.461 24.2529L344.267 25.2675C344.465 25.381 344.583 25.5722 344.59 25.779L344.621 26.6442L344.93 26.7733C345.161 26.8733 345.4 26.9668 345.632 27.0668C345.87 27.1666 346.03 27.3816 346.039 27.6198L346.07 28.485L346.378 28.6141C346.61 28.7141 346.849 28.8076 347.081 28.9076C347.193 28.9545 347.286 29.0209 347.358 29.113C347.788 29.6535 348.115 30.1739 348.432 30.6772C348.446 30.6994 348.46 30.7216 348.474 30.7437C349.097 31.7424 349.64 32.6115 350.769 33.2378C350.967 33.3513 351.091 33.5423 351.099 33.7555L351.209 36.8902C351.22 37.2099 350.967 37.4871 350.616 37.5286L345.029 38.2553L345.032 38.318C345.044 38.6628 344.743 38.9539 344.362 38.9649L341.598 39.045C341.61 39.3898 341.308 39.681 340.928 39.692L340.936 39.6981ZM337.933 38.5298L340.2 38.4642C340.188 38.1194 340.489 37.8282 340.869 37.8172L343.634 37.7371C343.623 37.4174 343.876 37.1402 344.228 37.0986L349.814 36.372L349.735 34.1276C348.517 33.3595 347.916 32.3916 347.278 31.3746C346.999 30.9245 346.706 30.4623 346.351 29.9956C346.168 29.9194 345.986 29.843 345.81 29.7665L345.122 29.4789C344.883 29.3792 344.723 29.1641 344.715 28.9259L344.685 28.0607C344.579 28.0136 344.466 27.9729 344.361 27.9257L343.673 27.6382C343.434 27.5384 343.274 27.3234 343.266 27.0851L343.234 26.1698L341.427 25.1552C341.229 25.0417 341.111 24.8506 341.104 24.6436L341.072 23.7283L339.264 22.7138C339.067 22.6002 338.95 22.4091 338.942 22.2022L338.909 21.2618L336.361 19.6411C336.184 19.527 336.074 19.3481 336.067 19.1475L336.034 18.2071L333.485 16.5864C333.308 16.4723 333.199 16.2935 333.191 16.0929L333.169 15.4659C332.962 15.4719 332.766 15.396 332.629 15.2557C332.471 15.097 332.327 14.9506 332.184 14.8104C331.474 14.103 330.937 13.5725 330.467 12.4062L329.595 12.4315C329.215 12.4425 328.894 12.1694 328.882 11.8246L328.85 10.9218C328.42 10.6895 328.115 10.4661 327.838 10.267C327.49 10.0135 327.206 9.80834 326.75 9.6333C326.942 11.5544 327.572 12.7349 328.298 14.082C328.519 14.496 328.742 14.9101 328.958 15.3557C328.973 15.3866 328.981 15.4178 328.996 15.4487L331.215 23.0598L331.354 23.0558C331.734 23.0448 332.055 23.3179 332.067 23.6627L332.111 24.9166C332.492 24.9056 332.813 25.1788 332.825 25.5236L332.846 26.1505C333.227 26.1395 333.548 26.4126 333.56 26.7575L333.604 28.0113C333.984 28.0003 334.305 28.2734 334.317 28.6182L334.428 31.753C334.774 31.743 335.072 31.9665 335.131 32.2723L335.917 36.3164L336.29 36.4687C336.521 36.5687 336.76 36.6622 336.992 36.7622C337.16 36.8326 337.289 36.9607 337.357 37.1156L337.94 38.5484L337.933 38.5298Z" fill="white"/>
<path d="M219.524 30.661C219.213 30.67 218.923 30.4838 218.837 30.2039C218.633 29.5445 218.268 28.8145 217.882 28.0475C216.707 25.7219 215.248 22.827 217.98 20.2187C220.076 17.8422 225.948 15.6262 227.964 14.9089L227.958 14.7271C227.951 14.5264 228.048 14.3354 228.224 14.211C228.399 14.0867 228.626 14.0488 228.843 14.1053L230.939 14.6721C231.176 14.7343 231.355 14.9111 231.418 15.1289C231.786 16.5303 232.456 17.4712 233.169 18.4672C233.97 19.5988 234.807 20.7669 235.155 22.5894C235.214 22.914 234.991 23.2343 234.633 23.3074C231.755 23.9179 229.722 25.3073 227.573 26.7816C225.343 28.3084 223.033 29.8941 219.675 30.6377C219.627 30.6454 219.579 30.6531 219.53 30.6545L219.524 30.661ZM229.322 15.5411C229.259 15.7124 229.112 15.8547 228.914 15.9169C225.372 17.1241 220.649 19.1875 219.019 21.0359C216.894 23.071 217.98 25.2258 219.131 27.5102C219.133 27.5141 219.135 27.5179 219.136 27.5217C219.441 28.1216 219.732 28.7031 219.959 29.2676C222.715 28.5289 224.756 27.133 226.728 25.7768C226.735 25.772 226.742 25.7672 226.749 25.7625C228.763 24.3842 230.839 22.9631 233.654 22.2312C233.305 20.9673 232.672 20.0756 232.003 19.1411C231.998 19.1348 231.994 19.1285 231.989 19.1221C231.309 18.1626 230.609 17.1764 230.175 15.7674L229.322 15.5348L229.322 15.5411Z" fill="white"/>
<path d="M103.865 86.7271C103.733 86.7309 103.608 86.7031 103.495 86.6437C103.291 86.537 103.159 86.3397 103.151 86.1204L103.144 85.9261C102.865 85.8461 102.571 85.7604 102.278 85.6814C101.006 85.329 99.5661 84.925 98.5111 84.2403C98.1362 84 97.9435 83.6414 97.7513 83.2957C97.566 82.9495 97.3886 82.6283 97.0485 82.3937C96.8426 82.2548 96.7449 82.0255 96.785 81.7986C97.2888 78.8091 98.7023 76.5029 100.063 74.267C100.495 73.5642 100.9 72.8997 101.277 72.2107L101.239 71.1139C101.227 70.7687 101.528 70.4776 101.908 70.4666L101.886 69.8398C101.874 69.4951 102.175 69.204 102.555 69.193L102.533 68.5658C102.521 68.2211 102.822 67.93 103.202 67.919L103.18 67.2918C103.168 66.9471 103.469 66.656 103.849 66.645L103.827 66.0178C103.823 65.9178 103.848 65.8105 103.9 65.721C104.024 65.4979 104.266 65.133 104.602 64.6337C106.048 62.4768 106.875 61.0156 107.078 60.2754C106.697 60.2865 106.391 60.0131 106.379 59.6684L106.346 58.7529L104.539 57.7384C104.49 57.7145 104.447 57.6781 104.411 57.6417C103.237 56.5396 102.057 55.4379 100.876 54.3363C99.7382 53.271 98.6009 52.212 97.463 51.1467L96.3848 51.1778C96.143 51.185 95.9107 51.0787 95.7797 50.8877L93.6682 47.9179L90.95 46.189C90.7092 46.0328 90.6025 45.7535 90.6838 45.5001L91.3085 43.5992C91.3333 43.5169 91.3792 43.4465 91.4394 43.3821C92.2251 42.5121 93.0113 41.6421 93.8039 40.7719C94.57 39.9275 95.3356 39.0769 96.1018 38.2264C98.0259 36.4762 99.903 34.765 101.781 33.0538C103.705 31.3036 105.622 29.5536 107.547 27.8096C108.102 27.2727 108.599 26.6558 109.129 25.994C110.541 24.2398 112.146 22.2478 115.326 21.7666C115.54 21.7353 115.756 21.7918 115.913 21.9254C116.062 22.0528 116.163 22.1441 116.227 22.2112C116.387 22.2317 116.63 22.2686 117.022 22.364C117.315 22.437 117.524 22.6757 117.533 22.9516L117.556 23.5786L118.247 23.5585C118.627 23.5475 118.948 23.8206 118.96 24.1654L118.982 24.7924L119.673 24.7724C120.054 24.7614 120.375 25.0345 120.387 25.3793L120.415 26.1818L122.029 26.6183C122.316 26.6978 122.517 26.9305 122.527 27.2001L122.571 28.454C122.577 28.6295 122.5 28.8012 122.366 28.9243L106.476 43.0031L106.568 45.5923L119.165 55.7084C119.307 55.8233 119.389 55.9842 119.395 56.1599L119.439 57.4133C119.668 57.4071 119.878 57.5014 120.016 57.6666C120.153 57.8323 120.188 58.0444 120.119 58.2411L118.877 61.6725C118.448 62.8522 118.019 64.0381 117.597 65.2178C117.54 65.37 117.42 65.4988 117.264 65.5788C117.032 65.6923 116.808 65.799 116.583 65.912L116.189 66.1054L115.652 68.3489C115.586 68.6333 115.316 68.8359 114.998 68.845L114.846 68.8493L114.358 70.897C114.292 71.1814 114.022 71.3834 113.704 71.393L113.748 72.6469C113.76 72.9916 113.459 73.2827 113.079 73.2937L113.101 73.9204C113.113 74.2656 112.812 74.5567 112.432 74.5677L112.454 75.1944C112.462 75.4328 112.318 75.6564 112.087 75.7699C111.856 75.8834 111.631 75.9901 111.407 76.1036L111.107 76.2501L111.138 77.1152C111.15 77.4604 110.849 77.7515 110.469 77.7625L110.491 78.3893C110.503 78.734 110.202 79.0251 109.822 79.0361L109.614 79.0423L108.523 82.0547C108.094 83.2344 107.665 84.4208 107.243 85.6C107.155 85.8413 106.919 86.0113 106.643 86.0319C105.303 86.1272 105.147 86.2004 104.419 86.548L104.167 86.6682C104.072 86.7151 103.969 86.7366 103.872 86.7395L103.865 86.7271ZM98.2128 81.6569C98.6062 82.0222 98.8279 82.4296 98.9985 82.7451C99.1088 82.9424 99.2276 83.165 99.3195 83.2253C100.179 83.7779 101.409 84.1273 102.608 84.4678C102.634 84.4751 102.66 84.4824 102.686 84.4898C103.168 84.62 103.629 84.7507 104.056 84.8891C104.203 84.935 104.331 85.0317 104.411 85.1485C104.848 84.9728 105.267 84.8857 106.074 84.812C106.452 83.7591 106.837 82.7063 107.215 81.6535L108.45 78.2289C108.539 77.9751 108.795 77.8047 109.086 77.7961L109.063 77.1693C109.051 76.8242 109.353 76.5331 109.733 76.522L109.711 75.8953C109.702 75.6569 109.847 75.4333 110.078 75.3199L110.745 74.9929C110.847 74.9397 110.956 74.8928 111.058 74.8397L111.027 73.9745C111.015 73.6298 111.316 73.3382 111.696 73.3272L111.674 72.7005C111.662 72.3558 111.963 72.0647 112.344 72.0537L112.299 70.7998C112.287 70.4546 112.588 70.1635 112.968 70.1525L113.12 70.1482L113.609 68.101C113.675 67.8166 113.944 67.614 114.262 67.6049L114.415 67.6006L114.903 65.5529C114.945 65.3696 115.071 65.2154 115.255 65.1287L115.921 64.8017C116.071 64.7285 116.221 64.6548 116.363 64.582C116.76 63.4784 117.164 62.3749 117.561 61.2713L118.514 58.6452C118.269 58.5581 118.088 58.3374 118.079 58.0808L118.022 56.4692L105.425 46.3534C105.282 46.2383 105.201 46.0775 105.195 45.902L105.084 42.7673C105.078 42.5917 105.155 42.4201 105.289 42.2969L121.179 28.2182L121.16 27.6915L119.547 27.255C119.26 27.1755 119.058 26.9428 119.049 26.6732L119.027 26.0463L118.335 26.0663C117.955 26.0773 117.634 25.8042 117.622 25.4594L117.6 24.8325L116.909 24.8525C116.529 24.8635 116.208 24.5903 116.195 24.2455L116.168 23.4744C116.05 23.4527 115.98 23.4484 115.939 23.4434C115.619 23.4212 115.47 23.3189 115.291 23.1421C115.27 23.1239 115.241 23.0933 115.205 23.0567C112.807 23.5341 111.554 25.0891 110.235 26.7277C110.234 26.7287 110.233 26.7298 110.232 26.7309C109.703 27.3854 109.153 28.0653 108.532 28.6723C106.594 30.4354 104.67 32.1856 102.752 33.9293C100.875 35.6406 98.9974 37.3455 97.1203 39.0566C96.4012 39.8619 95.6287 40.7065 94.8625 41.5571C94.1033 42.3949 93.344 43.2328 92.5916 44.0704L92.148 45.42L94.5684 46.9627C94.6397 47.0111 94.7036 47.0657 94.7548 47.1394L96.7275 49.9129L97.7165 49.8842C97.9097 49.8784 98.0993 49.9483 98.235 50.0762C99.4441 51.2085 100.646 52.3345 101.856 53.4668C103.015 54.5503 104.174 55.6342 105.333 56.7177L107.381 57.8696C107.578 57.9831 107.696 58.1741 107.703 58.3809L107.725 59.0081C108.022 58.9995 108.291 59.1609 108.397 59.4151C108.813 60.4325 107.798 62.2628 105.773 65.2901C105.537 65.642 105.333 65.9494 105.209 66.1538L105.247 67.2382C105.259 67.5834 104.958 67.8745 104.578 67.8855L104.6 68.5122C104.612 68.8569 104.311 69.148 103.931 69.159L103.953 69.7862C103.965 70.1309 103.664 70.422 103.284 70.433L103.306 71.0602C103.318 71.4049 103.017 71.696 102.636 71.7071L102.659 72.3338C102.662 72.4343 102.639 72.5415 102.586 72.6311C102.183 73.3675 101.739 74.0991 101.307 74.8134C101.294 74.8351 101.28 74.8568 101.267 74.8784C101.264 74.8842 101.26 74.89 101.257 74.8958C100.011 76.941 98.7214 79.0573 98.2059 81.6636L98.2128 81.6569Z" fill="white"/>
<path d="M181.078 73.8227C180.788 73.8314 180.497 73.8395 180.214 73.8476C179.834 73.8586 179.52 73.5853 179.507 73.2406L179.503 73.1027L177.245 72.6598C177.078 72.6268 176.929 72.5372 176.828 72.4147L175.561 70.8007L171.005 70.3426C170.665 70.3086 170.4 70.0524 170.389 69.7393L168.315 69.7991C167.934 69.8102 167.613 69.5373 167.601 69.1925L166.91 69.2122C166.53 69.2232 166.209 68.9503 166.197 68.6056L164.814 68.6453C164.434 68.6563 164.113 68.3834 164.101 68.0387L162.719 68.0784C162.338 68.0895 162.017 67.8166 162.005 67.4718L160.622 67.5116C160.242 67.5226 159.921 67.2497 159.909 66.9045L159.902 66.7106C159.029 66.4659 158.342 66.4104 157.773 66.364C155.649 66.1873 155.084 65.664 154.894 62.0354C154.888 61.8539 154.964 61.6758 155.112 61.5523C156.745 60.1557 156.252 57.76 155.734 55.2273C155.516 54.1476 155.283 53.0312 155.232 51.9846L152.923 25.7178C152.899 25.4486 153.07 25.1926 153.351 25.0904C155.441 24.3082 158.856 24.2406 161.871 24.1784C162.251 24.1674 162.566 24.4407 162.578 24.7855L163.96 24.7455C164.333 24.7347 164.647 24.9954 164.672 25.3273L165.961 42.2599C166.341 42.2489 166.662 42.522 166.674 42.8668L166.917 49.7631C167.228 49.7544 167.505 49.9345 167.597 50.2016C168.12 51.7054 168.131 53.3993 168.134 55.0372C168.14 56.3864 168.144 57.6666 168.453 58.6055L176.266 60.0045L175.941 50.7632C175.929 50.4185 176.23 50.1274 176.61 50.1164C176.609 50.0853 176.608 50.0537 176.613 50.0159C176.801 48.6739 176.724 47.6656 176.658 46.77C176.538 45.1229 176.443 43.8015 178.408 42.2258L178.396 41.8998C178.384 41.555 178.686 41.2638 179.066 41.2528L185.978 41.0526C186.165 41.0472 186.34 41.1112 186.476 41.2203C186.626 41.3477 186.725 41.4389 186.79 41.5061C186.95 41.5266 187.194 41.5634 187.584 41.6588C187.794 41.7092 187.965 41.8424 188.047 42.022C188.534 43.0873 188.816 44.0268 188.92 45.9756C188.925 46.1323 188.875 46.2844 188.762 46.4069C187.929 47.3223 188.169 49.4303 188.4 51.4694C188.561 52.877 188.73 54.3344 188.55 55.5193C187.819 60.4985 187.53 66.6445 187.767 72.3802C187.776 72.6435 187.605 72.8805 187.338 72.9825C185.719 73.5877 183.408 73.7677 181.065 73.8357L181.078 73.8227ZM180.868 72.5736C182.859 72.5286 184.923 72.3874 186.382 71.956C186.182 66.2821 186.468 60.2486 187.194 55.3388C187.35 54.3093 187.195 52.9442 187.046 51.6241C187.044 51.6108 187.043 51.5976 187.041 51.5843C186.781 49.3073 186.539 47.149 187.536 45.8023C187.445 44.3615 187.244 43.5828 186.904 42.7831C186.682 42.7393 186.57 42.73 186.515 42.7253C186.196 42.7032 186.047 42.6008 185.867 42.424C185.839 42.3934 185.796 42.357 185.739 42.2959L179.814 42.4675C179.821 42.6618 179.731 42.8465 179.562 42.9706C177.877 44.2306 177.931 44.9884 178.052 46.6606C178.118 47.5497 178.199 48.6585 178.007 50.0949L178.027 50.6718C178.04 51.0165 177.739 51.3076 177.358 51.3186L177.689 60.7226C177.696 60.9108 177.606 61.0956 177.444 61.2196C177.282 61.3431 177.07 61.3934 176.86 61.3555L167.808 59.7349C167.578 59.6913 167.386 59.5525 167.303 59.3543C166.773 58.1779 166.765 56.6519 166.756 55.0378C166.756 55.028 166.756 55.0183 166.756 55.0085C166.756 54.9837 166.756 54.9589 166.756 54.9341C166.749 53.5891 166.742 52.206 166.421 51.0016L166.276 51.0055C165.896 51.0165 165.575 50.7436 165.563 50.3989L165.32 43.5023C164.946 43.5131 164.633 43.2523 164.607 42.9204L163.34 25.9873L161.929 26.0281C161.549 26.0391 161.228 25.766 161.216 25.4212C158.733 25.4679 156.08 25.5699 154.346 26.0657L156.612 51.8816C156.661 52.8655 156.878 53.9389 157.095 54.9745C157.638 57.6259 158.198 60.3583 156.292 62.2274C156.451 64.9717 156.645 64.9909 157.894 65.0928C158.602 65.1479 159.566 65.2264 160.813 65.6425C161.079 65.7286 161.26 65.9556 161.269 66.2127L162.651 66.1725C163.031 66.1615 163.352 66.4348 163.364 66.7795L164.747 66.7393C165.127 66.7283 165.449 67.0017 165.461 67.3464L166.843 67.3062C167.223 67.2952 167.544 67.5686 167.556 67.9133L168.248 67.8932C168.628 67.8821 168.949 68.1555 168.961 68.5002L171.035 68.4404C171.415 68.4294 171.736 68.7023 171.748 69.047L171.751 69.1284L176.015 69.5574C176.209 69.577 176.386 69.6723 176.501 69.813L177.798 71.4576L180.32 71.9555C180.634 72.0154 180.857 72.26 180.867 72.5487L180.868 72.5736Z" fill="white"/>
<path d="M145.635 74.223C145.442 74.2287 145.246 74.1588 145.109 74.031L139.474 68.6405C139.277 68.5582 139.081 68.4758 138.884 68.394L138.196 68.1062C137.957 68.0066 137.797 67.7912 137.789 67.5532L137.756 66.6129L135.208 64.9923C135.208 64.9923 135.158 64.9559 135.129 64.9377C134.28 64.2157 133.465 63.4612 132.672 62.7311C130.033 60.297 127.536 57.9907 123.958 56.6071C123.727 56.5133 123.561 56.3174 123.538 56.0857C123.464 55.3474 123.21 54.7897 123.022 54.3808C122.872 54.0591 122.76 53.8049 122.757 53.5415C122.759 53.2026 123.054 52.9239 123.427 52.9134L123.405 52.2862C123.397 52.0731 123.508 51.8754 123.697 51.7509C124.746 51.0802 125.201 50.226 125.733 49.2316C126.044 48.6514 126.363 48.0524 126.825 47.43C126.865 47.3788 126.911 47.3271 126.965 47.2883L129.394 45.5233L129.361 44.5829C129.353 44.3446 129.497 44.1208 129.728 44.0074L130.395 43.6806C130.497 43.6274 130.606 43.5803 130.708 43.5272L130.677 42.662C130.671 42.4677 130.768 42.2765 130.936 42.1524L133.365 40.3876L133.332 39.4472C133.324 39.2089 133.468 38.9851 133.7 38.8717L134.366 38.5449C134.468 38.4917 134.577 38.4446 134.679 38.3915L134.648 37.5263C134.64 37.2881 134.784 37.0642 135.015 36.9508L135.682 36.624C135.859 36.5373 136.042 36.4441 136.219 36.3574C136.728 35.6649 137.243 34.9722 137.752 34.2734C138.306 33.5168 138.867 32.7537 139.429 31.9969C139.554 31.8301 139.759 31.7238 139.979 31.7174L143.436 31.6173C143.671 31.6105 143.896 31.7106 144.026 31.8889C144.905 33.0558 146.858 34.2858 149.391 35.2668C149.636 35.3601 149.803 35.5812 149.812 35.8257L149.856 37.0796C149.863 37.2865 149.753 37.4905 149.57 37.6088L147.838 38.7259L147.87 39.6412C147.877 39.8356 147.78 40.0266 147.611 40.1507L145.102 41.9744L144.553 44.2809C144.517 44.4326 144.418 44.5673 144.283 44.6591L142.314 45.9336C141.673 46.6049 141.32 47.3745 140.947 48.1884C140.639 48.8625 140.317 49.5562 139.823 50.2672C139.778 50.3376 139.717 50.3955 139.642 50.4415L137.91 51.5589L138 54.0916C140.628 56.2246 143.25 58.3642 145.879 60.5033C148.643 62.7516 151.4 64.9999 154.171 67.2483C154.427 67.4604 154.474 67.8166 154.276 68.0737C154.183 68.1953 154.131 68.2723 154.105 68.3106C154.041 68.4758 153.9 68.6118 153.723 68.6793C153.696 68.6989 153.648 68.7257 153.588 68.7712C152.459 70.7241 149.611 73.9448 145.67 74.2283C145.656 74.2287 145.65 74.2287 145.636 74.2292L145.635 74.223ZM139.158 67.118L139.467 67.2473C139.698 67.3474 139.937 67.4407 140.169 67.5408C140.253 67.5757 140.324 67.6241 140.388 67.6787L145.881 72.9356C148.719 72.5774 151.244 70.2071 152.422 68.077C152.467 67.9942 152.527 67.9233 152.608 67.8707C152.655 67.8381 152.702 67.7988 152.75 67.7725C150.152 65.6661 147.562 63.5531 144.972 61.44C144.969 61.4378 144.966 61.4357 144.964 61.4336C142.263 59.2398 139.571 57.0399 136.871 54.8462C136.728 54.7308 136.646 54.5699 136.641 54.4009L136.53 51.2659C136.523 51.0591 136.633 50.8551 136.816 50.7369L138.737 49.495C139.132 48.9065 139.415 48.2956 139.685 47.7043C140.096 46.8074 140.52 45.8852 141.348 45.0453C141.382 45.0129 141.422 44.9804 141.463 44.9541L143.276 43.7782L143.825 41.4905C143.862 41.3513 143.947 41.2234 144.069 41.132L146.498 39.3672L146.464 38.4267C146.457 38.2198 146.567 38.0158 146.75 37.8975L148.482 36.7805L148.464 36.2601C146.884 35.6155 144.484 34.455 143.134 32.8812L140.397 32.9605C139.902 33.6275 139.413 34.3006 138.925 34.9674C138.888 35.017 138.852 35.0666 138.816 35.1162C138.31 35.804 137.805 36.4918 137.293 37.1799C137.227 37.2634 137.146 37.3347 137.045 37.3816C136.813 37.495 136.588 37.6019 136.364 37.7151L136.065 37.8618L136.095 38.727C136.104 38.9652 135.959 39.1891 135.728 39.3025C135.497 39.4159 135.273 39.5228 135.048 39.636L134.749 39.7827L134.779 40.6479C134.786 40.8422 134.689 41.0333 134.52 41.1574L132.091 42.9223L132.125 43.8627C132.133 44.1009 131.988 44.3247 131.757 44.4382C131.526 44.5515 131.301 44.6585 131.077 44.7716L130.778 44.9184L130.808 45.7836C130.815 45.9779 130.718 46.169 130.549 46.2931L127.932 48.1951C127.557 48.7188 127.272 49.252 127.001 49.7602C127 49.7621 126.999 49.764 126.997 49.7659C126.994 49.7719 126.991 49.7779 126.988 49.7839C126.471 50.7473 125.939 51.7407 124.819 52.5591L124.852 53.4869C124.861 53.7565 124.676 53.9944 124.417 54.0897C124.582 54.4612 124.786 54.9577 124.891 55.582C128.508 57.0781 131.121 59.4822 133.651 61.8109C133.66 61.8192 133.669 61.8275 133.678 61.8358C133.74 61.8932 133.803 61.9508 133.865 62.0085C134.579 62.6663 135.31 63.3404 136.058 63.9821L138.847 65.7588C139.024 65.8732 139.134 66.0518 139.141 66.2524L139.171 67.1176L139.158 67.118Z" fill="white"/>
<path d="M223.166 75.1145C223.166 75.1145 223.131 75.1154 223.118 75.1159L213.418 74.7688C213.057 74.7544 212.765 74.493 212.753 74.1608L205.841 74.3609C205.46 74.3719 205.139 74.099 205.127 73.7538L202.362 73.8342C201.982 73.8452 201.661 73.5719 201.649 73.2271L192.662 73.4871C192.282 73.4981 191.961 73.2252 191.949 72.8805L191.258 72.9006C190.988 72.9083 190.741 72.7709 190.616 72.555C190.202 71.8076 189.958 71.3566 189.354 70.9223C189.148 70.771 189.05 70.523 189.11 70.2889L190.942 63.3324C190.991 63.1552 191.117 63.0073 191.287 62.9273L191.954 62.6003C192.063 62.5472 192.164 62.4941 192.273 62.4404L191.867 31.4558C191.86 31.274 191.951 31.0956 192.106 30.9782C192.261 30.8607 192.46 30.8048 192.661 30.8303C195.171 31.1655 198.821 31.2669 202.927 31.148C203.107 31.1429 203.289 31.2004 203.425 31.3156C203.56 31.431 203.635 31.5857 203.641 31.755L204.747 63.1648L224.236 64.4269C224.423 64.4403 224.599 64.5169 224.714 64.6514C224.83 64.7864 224.891 64.9478 224.876 65.1177L223.825 74.562C223.787 74.8765 223.505 75.1169 223.159 75.1269L223.166 75.1145ZM214.115 73.5374L222.519 73.84L223.434 65.6238L204.028 64.3718C203.675 64.3507 203.396 64.0888 203.385 63.7695L202.28 32.4219C198.782 32.5044 195.637 32.4198 193.262 32.1623L193.663 62.8081C193.671 63.0403 193.527 63.2577 193.295 63.3712C193.064 63.4846 192.84 63.5914 192.615 63.7044L192.214 63.9045L190.555 70.2224C191.054 70.6533 191.354 71.1153 191.65 71.6462L192.59 71.6194C192.97 71.6084 193.291 71.8813 193.303 72.226L202.289 71.9661C202.669 71.9551 202.99 72.228 203.002 72.5727L205.768 72.4927C206.148 72.4817 206.469 72.7551 206.481 73.0998L213.394 72.8997C213.774 72.8887 214.095 73.1616 214.107 73.5063L214.109 73.5503L214.115 73.5374Z" fill="white"/>
<path d="M69.7945 82.0672L67.0293 82.1471C66.8287 82.1529 66.6397 82.083 66.5034 81.9489C65.6507 81.1264 64.8692 80.7472 64.1796 80.4159C62.434 79.5689 61.3564 78.847 61.2344 74.7841C61.2286 74.6271 61.2925 74.4748 61.3991 74.3585C62.5069 73.197 61.463 68.1249 60.3489 64.7745L60.1831 64.7792C59.9619 64.7855 59.7512 64.6978 59.6139 64.5384C59.4766 64.3795 59.4349 64.1736 59.4972 63.9768L60.1224 62.0761C60.1784 61.8989 60.3188 61.7568 60.5031 61.6821C64.3307 60.1467 64.3956 60.0193 63.9785 54.6595C63.9653 54.4905 64.0286 54.319 64.1559 54.196C64.2826 54.073 64.46 53.9925 64.6464 53.9873L64.5139 50.2256C64.5017 49.8808 64.8032 49.5898 65.1834 49.5787L65.0947 47.0709C65.0825 46.7261 65.384 46.435 65.7642 46.424L65.6317 42.6623C65.6195 42.3175 65.9205 42.0264 66.3007 42.0154L66.2347 40.1345C66.2225 39.7897 66.5235 39.4986 66.9037 39.4875L66.8593 38.2336C66.8472 37.8888 67.1487 37.5977 67.5288 37.5867L67.9782 37.5737C69.4645 36.5641 72.885 36.6157 75.6613 36.6608C75.9523 36.6649 76.2289 36.6695 76.4924 36.6744C76.4913 36.461 76.616 36.2567 76.8192 36.144C77.8779 35.5548 79.6906 35.9354 81.4568 36.38C81.7641 36.459 82.0086 36.5209 82.1686 36.5477C82.3982 36.5849 82.5973 36.7298 82.6871 36.928C84.7891 41.5866 86.7227 46.1999 87.3505 51.4469L88.7745 51.4057C89.1547 51.3947 89.4757 51.6681 89.4879 52.0128C89.8681 52.0018 90.1891 52.2747 90.2012 52.6199L90.2852 55.0023C90.4262 55.268 90.7472 55.742 91.083 56.2466C92.5076 58.3833 93.4976 59.9676 93.232 60.8725C93.1512 61.1387 92.8883 61.3283 92.5842 61.3369L92.2869 61.3455C92.2346 61.435 92.1755 61.5183 92.1163 61.6141C91.44 62.6501 90.6717 63.8212 91.3222 65.5907C91.536 66.1619 91.7568 66.7331 91.9849 67.3162C93.1032 70.1769 94.259 73.1309 94.5183 76.9577C94.5251 77.1459 94.4486 77.3302 94.2939 77.4604C94.1392 77.5902 93.9338 77.6462 93.7247 77.6146C91.1379 77.2565 89.5386 77.4221 87.3183 77.6496C86.5949 77.7271 85.8087 77.8066 84.9047 77.8765C84.6423 77.8966 84.3962 77.7846 84.2574 77.5816C83.9443 77.1263 83.6708 76.8265 83.3972 76.5393C82.6997 75.7876 82.2367 75.2112 81.9991 73.5676L81.9505 73.569C81.5703 73.58 81.2493 73.3066 81.2371 72.9619L81.1268 69.8274C80.7947 69.837 80.5037 69.6321 80.4314 69.3391L79.7582 66.7288L76.8689 66.8126C76.8789 67.1013 76.6667 67.3646 76.3578 67.4364C74.0387 67.999 74.0171 68.9474 74.3011 72.4975C74.3138 72.6665 74.251 72.8379 74.1306 72.9672C73.3359 73.7868 72.9003 77.1258 72.6659 78.9212C72.6004 79.4191 72.5402 79.8725 72.4837 80.2258C72.4499 80.4528 72.2767 80.6457 72.0376 80.7281L70.4577 81.2571L70.4641 81.4328C70.4762 81.7775 70.1747 82.0686 69.7945 82.0796V82.0672ZM67.2891 80.8846L69.059 80.8334C69.0495 80.5634 69.2343 80.3197 69.5147 80.2239L71.1769 79.6671C71.2154 79.3961 71.2534 79.0878 71.2973 78.7603C71.6679 75.9379 72.046 73.4981 72.9051 72.35C72.6669 69.3256 72.574 67.276 75.4686 66.3573L75.4633 66.2069C75.4512 65.8622 75.7521 65.5711 76.1328 65.5601L80.2804 65.4399C80.612 65.4304 80.9029 65.6353 80.9752 65.9283L81.6485 68.5381L81.7731 68.5347C82.1533 68.5237 82.4743 68.7966 82.4864 69.1413L82.5968 72.2763C82.9632 72.2658 83.2763 72.5138 83.3091 72.8456C83.4902 74.6601 83.8503 75.058 84.4617 75.7115C84.6845 75.9499 84.929 76.219 85.1978 76.5752C85.9153 76.5106 86.5632 76.4478 87.163 76.3866C89.1626 76.1778 90.7831 76.0117 93.0816 76.2525C92.7447 72.9614 91.7029 70.299 90.6912 67.7179C90.6879 67.7094 90.6846 67.701 90.6813 67.6925C90.4565 67.1173 90.2319 66.5428 90.0212 65.9738C89.1647 63.6637 90.2282 62.0325 90.9309 60.9582C91.0556 60.7724 91.167 60.5933 91.2652 60.4272C91.3761 60.2424 91.5793 60.117 91.8069 60.0978C91.4809 59.251 90.4218 57.6602 89.915 56.899C89.9129 56.8958 89.9108 56.8927 89.9087 56.8896C89.4631 56.2246 89.1125 55.7013 88.9699 55.3853C88.9398 55.3173 88.9234 55.2426 88.9208 55.167L88.8548 53.2863C88.4741 53.2974 88.1536 53.024 88.1414 52.6793L86.7586 52.7195C86.3921 52.73 86.079 52.482 86.0468 52.1502C85.5309 46.9436 83.6391 42.3416 81.5518 37.7015C81.4193 37.6676 81.2662 37.6345 81.0983 37.5891C81.0834 37.5854 81.0681 37.5816 81.0525 37.5777C80.2874 37.3877 78.7285 37.0005 77.8985 37.1106L77.9043 37.2862C77.9106 37.4555 77.8404 37.6207 77.7132 37.7436C77.5859 37.8665 77.4085 37.9344 77.2216 37.9336C76.758 37.9345 76.2247 37.9248 75.6502 37.9163C75.647 37.9163 75.6438 37.9162 75.6405 37.9162C73.4033 37.8805 69.667 37.8209 68.7422 38.6372C68.6213 38.7475 68.4507 38.8089 68.2776 38.8139L68.3219 40.0678C68.3341 40.4126 68.0331 40.7037 67.6529 40.7147L67.7189 42.5956C67.7311 42.9404 67.4301 43.2315 67.0499 43.2425L67.1825 47.0044C67.1946 47.3491 66.8931 47.6402 66.5129 47.6512L66.6016 50.159C66.6138 50.5037 66.3123 50.7948 65.9321 50.8058L66.0647 54.5675C66.0768 54.906 65.789 55.1904 65.4231 55.2139C65.7906 60.1361 65.5166 61.0099 61.3764 62.7052L61.1013 63.5416C61.3041 63.6048 61.4614 63.7508 61.5306 63.9433C61.6536 64.2976 64.4722 72.4118 62.6384 74.9694C62.7699 78.3103 63.5165 78.6717 64.8471 79.3171C65.5366 79.6484 66.3815 80.0635 67.3034 80.8966L67.2891 80.8846ZM75.4955 58.6749L74.4104 58.7065C74.2098 58.7122 74.0134 58.6361 73.8772 58.5021C73.7409 58.368 73.6791 58.188 73.7008 58.0051L74.0651 55.1895C74.081 55.0573 74.1459 54.93 74.2462 54.8328L74.5139 54.5738L74.5931 51.5216C74.5974 51.2516 74.7969 51.0136 75.0847 50.9361C75.3725 50.859 75.6803 50.9566 75.8546 51.1774L77.588 53.4429C77.588 53.4429 77.6245 53.4984 77.6393 53.5233L79.3796 56.7613C79.4757 56.9408 79.4693 57.1481 79.3717 57.3262C79.274 57.5048 79.0844 57.6235 78.8711 57.6546L76.2759 58.0439L76.0658 58.3637C75.948 58.549 75.7305 58.662 75.4955 58.6687V58.6749ZM75.4126 55.5394L75.1893 57.2467L75.2553 57.1505C75.3603 56.9906 75.5362 56.8853 75.7358 56.8541L77.7322 56.5583L76.4216 54.117L75.9285 53.4726L75.8936 54.8414C75.892 54.9984 75.8213 55.1449 75.7072 55.2551L75.4126 55.5394Z" fill="white"/>
<path d="M10.525 88.8035C10.525 88.8035 10.4767 88.8049 10.4559 88.8054L3.52123 88.3788C3.29244 88.3664 3.08757 88.2467 2.97056 88.0681C2.44368 87.2551 1.06861 85.7384 0.274523 85.1964C0.0404438 85.0341 -0.0591345 84.7607 0.0355015 84.5008C0.589705 82.9472 1.00182 80.8956 1.40254 78.913C1.72664 77.3096 2.0331 75.7948 2.40994 74.5098L2.28075 70.8424C2.26861 70.4972 2.56974 70.2061 2.94992 70.1951L3.01212 70.1932L3.42529 63.849C3.44836 63.522 3.73698 63.2692 4.09645 63.2587L4.00811 60.7509C3.99597 60.4061 4.29709 60.1151 4.67732 60.104L4.58898 57.5962C4.57683 57.251 4.87796 56.9599 5.25813 56.9489L5.19192 55.0683C5.17972 54.7236 5.4809 54.432 5.86107 54.421L5.93019 54.4191L6.3583 48.6959C6.38159 48.3751 6.6702 48.1218 7.02967 48.1118L6.94133 45.6038C6.92919 45.259 7.23032 44.9678 7.61054 44.9568L7.79028 44.9516C8.02244 44.0788 8.10904 43.1977 8.19632 42.3354C8.30995 41.2401 8.42252 40.1134 8.83474 39.0472C8.95502 38.7299 9.3297 38.5622 9.68579 38.6522L11.7816 39.2191C12.0681 39.2987 12.2701 39.5313 12.2796 39.8009L13.6621 39.7609C13.652 39.4725 13.8643 39.2153 14.173 39.1373C15.8261 38.7255 17.0136 39.0425 18.0547 39.3261C18.4878 39.4454 18.893 39.5529 19.31 39.6036C19.5949 39.6393 19.823 39.8272 19.8873 40.0827C20.1922 41.2725 20.493 41.9542 21.0515 42.6848L21.3764 42.6754C21.6737 42.6668 21.9423 42.8284 22.0481 43.0827L23.5402 46.7423L27.6538 52.5351L28.6493 52.5059C28.6003 48.9554 29.4759 46.1122 30.3266 43.3513C30.8048 41.7999 31.3019 40.1977 31.6222 38.4877C31.6863 38.1469 32.045 37.9169 32.4138 37.9752L35.8922 38.5021C36.2191 38.5491 36.4631 38.7994 36.4737 39.1003L36.4793 39.257C37.2316 39.3984 37.9578 39.3899 38.6703 39.3818C39.8945 39.3652 41.1604 39.3536 42.3176 40.1862L42.7393 40.174C43.1195 40.163 43.4405 40.4361 43.4526 40.7809L43.5189 42.6617L45.5927 42.6017C45.8138 42.5953 46.0177 42.6835 46.1545 42.8364C46.2555 42.9528 46.3277 43.0385 46.3928 43.1182C46.4846 43.1721 46.5977 43.2378 46.7252 43.322C46.8879 43.424 46.9904 43.5842 47.0173 43.7591C47.2349 45.4159 47.8779 46.778 48.5056 48.0965C48.7746 48.66 49.0511 49.2417 49.2795 49.8315C49.3024 49.8933 49.3184 49.956 49.3209 50.025L49.4092 52.5328C49.7894 52.5217 50.1104 52.7946 50.1225 53.1394L50.1889 55.0204C50.569 55.0094 50.8901 55.2823 50.9022 55.6271L50.9682 57.5081C51.3484 57.4971 51.6694 57.77 51.6816 58.1152L51.7703 60.6225C52.1504 60.6115 52.4715 60.8849 52.4836 61.2296L52.5274 62.4835C52.8801 62.4735 53.1859 62.7095 53.2387 63.0279L54.1416 69.2083L54.2171 69.3946C56.5778 75.1188 57.2231 77.9182 56.4596 79.0322C56.44 79.0639 56.4136 79.0964 56.3798 79.1222C56.0055 79.4909 49.5702 81.6602 48.7638 81.3572C48.5114 81.2643 48.3445 81.0431 48.3358 80.7989L48.3299 80.6294C46.2124 80.0381 45.8439 79.2013 45.3703 77.7405C45.2536 77.3733 45.1215 76.963 44.9254 76.5043L44.7181 76.5106C44.3378 76.5216 44.0169 76.2482 44.0047 75.9035L43.9164 73.3957C43.5362 73.4067 43.2152 73.1333 43.203 72.7886L43.1589 71.5347C42.7787 71.5457 42.4577 71.2728 42.4455 70.9281L42.3351 67.7931C41.9549 67.8041 41.6339 67.5312 41.6218 67.186L41.5555 65.3054C41.1753 65.3164 40.8543 65.0435 40.8422 64.6983L40.8201 64.0716C40.4399 64.0826 40.1189 63.8092 40.1067 63.4645L40.0184 60.9567C39.7281 60.9653 39.4666 60.8097 39.3543 60.568C39.084 59.9671 38.9847 59.5056 38.8943 59.1005C38.8938 59.0876 38.8934 59.0752 38.893 59.0627C38.1419 59.7435 38.1728 60.0313 38.2306 60.6886C38.2844 61.233 38.3524 61.9842 37.9903 63.0992C37.9025 63.3592 37.646 63.5421 37.3488 63.5507L37.393 64.8046C37.4051 65.1493 37.104 65.4404 36.7238 65.4514L36.8121 67.9592C37.0195 67.9535 37.2159 68.0291 37.3526 68.1761C37.489 68.3164 37.5512 68.5089 37.5161 68.6922L36.9352 71.8468C36.8834 72.1432 36.6075 72.3649 36.2757 72.3745L35.4254 72.3989C34.6206 75.0896 32.5239 75.0877 29.4307 75.0829C29.2371 75.0886 29.0543 75.0058 28.9252 74.878C28.2371 74.201 27.9789 74.1397 26.5035 73.8998C26.2669 73.863 26.075 73.7179 25.9847 73.5135L22.3244 65.0718C22.1699 65.0071 22.0154 64.9425 21.8678 64.8779L21.1796 64.5901C20.9408 64.4905 20.781 64.2751 20.7726 64.0371L20.7344 62.9522C20.3989 62.4663 20.0154 61.988 19.6168 61.4786C18.8566 60.5215 18.0747 59.5401 17.5227 58.4078C17.0147 59.1125 16.9841 60.0112 16.9445 61.0477C16.913 61.921 16.8824 62.8191 16.5754 63.7317C16.4877 63.9917 16.231 64.1688 15.9338 64.1774L16 66.058C16.0121 66.4027 15.711 66.6938 15.3308 66.7048L15.375 67.9588C15.3871 68.3039 15.086 68.595 14.7058 68.606L14.6574 68.6075L14.3032 76.8198C14.305 76.8701 14.2929 76.9209 14.2739 76.9716C13.2906 80.0942 11.9394 84.3629 11.2334 88.2869C11.1816 88.5837 10.8987 88.8049 10.5739 88.8145L10.525 88.8035ZM3.96914 87.1484L9.92609 87.5156C10.6642 83.7161 11.9269 79.6877 12.8732 76.692L13.251 67.9702C13.2672 67.6432 13.5554 67.3775 13.9218 67.367L13.8776 66.1131C13.8654 65.7684 14.1666 65.4773 14.5468 65.4663L14.4805 63.5857C14.4684 63.2405 14.7695 62.9494 15.1497 62.9384L15.3226 62.9336C15.4666 62.3078 15.4918 61.6481 15.5105 61.0012C15.5107 60.9967 15.5109 60.9921 15.511 60.9875C15.5572 59.7541 15.605 58.4782 16.5069 57.4641C16.5729 57.3746 16.6258 57.3037 16.6521 57.2654C16.7155 57.1007 16.8561 56.9647 17.0336 56.8968C17.0811 56.8704 17.1553 56.8178 17.2836 56.7263C17.4658 56.5956 17.6997 56.5573 17.9234 56.62C18.1401 56.6827 18.3117 56.8407 18.381 57.0399C18.8377 58.4135 19.7789 59.5975 20.6912 60.7446C21.1328 61.2967 21.5819 61.8674 21.9688 62.44C22.0274 62.5324 22.0657 62.6377 22.0695 62.7445L22.0999 63.6096L22.409 63.7389C22.6408 63.8384 22.8794 63.9323 23.1112 64.0319C23.2727 64.0965 23.4018 64.2243 23.4692 64.3732L27.0919 72.7283C28.3243 72.9432 28.9187 73.1209 29.6909 73.8266C33.0744 73.8227 33.7314 73.6154 34.1609 71.6635C34.2201 71.3796 34.4964 71.1708 34.8144 71.1612L35.6301 71.1378L35.9782 69.2323C35.6649 69.1787 35.428 68.9345 35.4173 68.6338L35.2849 64.8721C35.2727 64.5269 35.5738 64.2358 35.954 64.2248L35.9099 62.9709C35.8977 62.6262 36.1989 62.3351 36.579 62.3241L36.7519 62.3193C36.8989 61.6889 36.8602 61.2376 36.8254 60.8315C36.8246 60.8225 36.8238 60.8135 36.8231 60.8045C36.7346 59.8656 36.7652 59.1618 37.9938 58.0908C38.0598 58.0013 38.1062 57.9433 38.1256 57.905C38.189 57.7399 38.3296 57.6044 38.5071 57.5364C38.5546 57.5101 38.6288 57.4574 38.7571 57.3659C38.9259 57.2482 39.1458 57.2041 39.355 57.2482C39.5641 57.2922 39.7349 57.4253 39.8242 57.6049C40.0555 58.0812 40.1457 58.4805 40.2287 58.8736C40.2868 59.1479 40.3442 59.4036 40.4519 59.7081L40.6454 59.7023C41.0256 59.6913 41.3466 59.9642 41.3588 60.3094L41.4471 62.8172C41.8273 62.8062 42.1483 63.0791 42.1605 63.4238L42.1825 64.051C42.5627 64.04 42.8837 64.3129 42.8959 64.6576L42.9621 66.5387C43.3423 66.5277 43.6633 66.8006 43.6755 67.1458L43.7859 70.2803C44.1661 70.2693 44.4871 70.5422 44.4992 70.8874L44.5434 72.1413C44.9236 72.1303 45.2446 72.4032 45.2567 72.7479L45.3451 75.2557C45.6354 75.2476 45.8969 75.4032 46.0092 75.6445C46.3314 76.3444 46.5183 76.9352 46.6733 77.4078C46.6744 77.4112 46.6756 77.4146 46.6767 77.418C47.1007 78.7217 47.2299 79.1186 49.1504 79.5637C49.4155 79.6254 49.6163 79.8265 49.6595 80.0702C51.1213 79.7202 54.5297 78.6612 55.3122 78.2873C55.5218 77.7477 55.3945 75.9126 52.8976 69.847L52.792 69.5928C52.7767 69.5492 52.7608 69.4994 52.7524 69.4559L51.9223 63.769L51.8532 63.7709C51.473 63.782 51.152 63.5086 51.1398 63.1639L51.096 61.91C50.7158 61.921 50.3948 61.6481 50.3826 61.3029L50.2939 58.7956C49.9139 58.8061 49.5929 58.5332 49.5807 58.1885L49.5145 56.3074C49.1343 56.3184 48.8133 56.0455 48.8011 55.7008L48.7349 53.8197C48.3547 53.8307 48.0337 53.5578 48.0216 53.2131L47.9146 50.1786C47.7097 49.6635 47.4632 49.1498 47.209 48.6111C46.5811 47.2864 45.9307 45.9118 45.6632 44.2125C45.6632 44.2125 45.6563 44.2128 45.6494 44.213C45.4744 44.1553 45.3319 44.0401 45.2504 43.8856L42.8517 43.9551C42.4715 43.9661 42.1505 43.693 42.1383 43.3482L42.0721 41.4673C41.8924 41.4725 41.7173 41.4148 41.582 41.3058C40.7793 40.6348 39.8493 40.6469 38.6794 40.662C38.6752 40.6621 38.6711 40.6622 38.667 40.6622C37.754 40.6761 36.7165 40.6873 35.5843 40.3687C35.3047 40.2889 35.1028 40.0562 35.0933 39.7867L35.0892 39.6738L32.8421 39.331C32.5158 40.8717 32.0683 42.3093 31.6401 43.7087C31.6392 43.7115 31.6383 43.7144 31.6374 43.7173C30.7254 46.6713 29.8637 49.4621 30.0267 53.1063C30.0327 53.2758 29.969 53.4343 29.8419 53.5573C29.7147 53.6804 29.5444 53.7541 29.3577 53.7598L27.2839 53.8197C27.042 53.8269 26.8099 53.7206 26.6786 53.5296L22.3102 47.3802C22.2813 47.3434 22.259 47.3003 22.2436 47.2567L20.9026 43.9569L20.709 43.9625C20.4878 43.9689 20.27 43.8748 20.1329 43.7156C19.3887 42.8208 18.9878 42.048 18.625 40.7845C18.2836 40.719 17.9552 40.6282 17.6339 40.5433C16.8165 40.3222 16.041 40.1125 15.0358 40.2545L15.0395 40.3612C15.0517 40.706 14.7506 40.9971 14.3703 41.0081L11.6053 41.0882C11.2251 41.0992 10.9041 40.8261 10.8919 40.4812L10.8858 40.3057L9.92857 40.0447C9.72397 40.7897 9.64107 41.5854 9.55497 42.412C9.55333 42.4278 9.55169 42.4436 9.55004 42.4594C9.54792 42.4801 9.54579 42.5009 9.54367 42.5217C9.43766 43.5599 9.32796 44.6342 8.9669 45.7459C8.87915 46.0058 8.62269 46.1889 8.32542 46.1976L8.41375 48.7055C8.4259 49.0502 8.12477 49.3413 7.7446 49.3523L7.67549 49.3542L7.24737 55.0779C7.22409 55.3987 6.93542 55.6515 6.576 55.662L6.64221 57.5426C6.65436 57.8878 6.35323 58.1789 5.97306 58.1899L6.0614 60.6977C6.07354 61.0424 5.77242 61.3335 5.39219 61.3445L5.48053 63.8523C5.49267 64.197 5.19155 64.4881 4.81138 64.4992L4.74913 64.5011L4.33601 70.8453C4.31293 71.1723 4.02432 71.4255 3.66485 71.4361L3.77526 74.5706C3.77747 74.6333 3.77277 74.6965 3.75403 74.7535C3.38299 76.0064 3.07004 77.5347 2.74637 79.1505C2.74415 79.1614 2.74194 79.1723 2.73972 79.1832C2.36434 81.0292 1.97684 82.9348 1.47442 84.4902C2.30794 85.1691 3.35913 86.3311 3.95557 87.1546L3.96914 87.1484Z" fill="white"/>
<path d="M253.038 75.5042C249.644 75.6028 246.908 75.3366 245.183 75.0915C244.933 75.0551 244.727 74.9043 244.643 74.6869L243.939 72.9562C242.458 71.5807 242.523 70.0792 242.575 68.6214C242.613 67.7165 242.649 66.7867 242.371 65.7655L242.219 65.7703C241.838 65.7813 241.517 65.5079 241.505 65.1632L241.417 62.6554C241.051 62.6659 240.737 62.4112 240.705 62.0799L239.671 51.4096L239.637 51.4105C239.257 51.4215 238.936 51.1481 238.924 50.8034L238.803 47.3802L236.996 46.3658C236.876 46.2939 236.775 46.1901 236.723 46.0724C235.859 44.1456 237.245 43.4089 237.836 43.0968C237.869 43.077 237.917 43.0568 237.958 43.0305L237.791 38.2908C237.784 38.1027 237.868 37.9246 238.023 37.8009C238.178 37.6771 238.383 37.621 238.585 37.6465C240.886 37.9564 242.597 37.8065 244.77 37.618C245.929 37.5154 247.233 37.4024 248.829 37.3436L248.836 37.3434C249.016 37.3381 249.198 37.3956 249.326 37.5112C249.462 37.6265 249.543 37.781 249.55 37.9503L249.66 41.085C249.971 41.076 250.254 41.2561 250.339 41.5297C250.546 42.143 250.727 42.4976 250.882 42.5935C251.031 42.6896 251.265 42.8334 251.578 43.0817C251.72 43.1968 251.809 43.3637 251.815 43.533L252.506 43.513C252.735 43.5063 252.959 43.6065 253.09 43.7722L254.321 45.3431L255.331 45.3139C255.545 45.3077 255.755 45.3957 255.893 45.5486L257.838 47.7517L258.875 47.7216C259.103 47.7149 259.328 47.8149 259.459 47.9806L260.77 49.6501L262.635 50.1542C262.81 50.1997 262.966 50.3141 263.048 50.4625C263.172 50.6722 263.291 50.8762 263.415 51.0859L263.709 51.5795C264.703 52.2785 265.759 52.8004 267.428 53.0278L268.728 32.9453C268.75 32.6183 269.039 32.3652 269.399 32.3548L279.076 32.0745C279.367 32.0661 279.628 32.2217 279.74 32.4632C280.701 34.5943 280.755 38.1009 280.809 41.1934C280.82 41.7077 280.824 42.2159 280.834 42.6988C280.84 42.8493 280.782 42.989 280.682 43.1049C280.07 43.7879 280.223 45.0072 280.387 46.2891C280.531 47.4396 280.677 48.6341 280.371 49.7726C280.297 50.0446 280.034 50.2404 279.723 50.2495L279.922 55.8918C279.924 55.9483 279.919 56.0115 279.9 56.0623C278.359 61.6107 277.609 68.0339 277.797 74.1536C277.809 74.4983 277.508 74.7831 277.128 74.8004C271.343 74.9804 269.755 74.8947 267.581 71.3116L267.318 71.3193C266.938 71.3303 266.617 71.0569 266.605 70.7122L266.419 65.427L263.241 63.8183C263.15 63.7705 263.078 63.7101 263.013 63.6364L261.782 62.0656L260.772 62.0948C260.558 62.101 260.347 62.0129 260.211 61.8602L258.264 59.6573L257.228 59.687C256.965 59.6947 256.718 59.564 256.593 59.3543L256.233 58.7496C256.137 58.5892 256.042 58.4288 255.946 58.2684C254.761 57.612 253.659 57.1859 252.348 56.8853L253.179 64.1913L253.228 64.1899C253.608 64.1789 253.929 64.4518 253.941 64.797L254.294 74.8277C254.306 75.1729 254.012 75.4573 253.632 75.4745C253.432 75.4802 253.231 75.4865 253.031 75.4922L253.038 75.5042ZM245.792 73.907C247.454 74.1287 249.904 74.3336 252.89 74.2536L252.581 65.4701C252.221 65.4802 251.908 65.2322 251.869 64.9071L250.869 56.1499C250.847 55.9493 250.931 55.7587 251.092 55.6223C251.253 55.4858 251.473 55.4293 251.689 55.4734C253.673 55.83 255.159 56.3581 256.825 57.2951C256.931 57.3549 257.01 57.4339 257.069 57.533C257.194 57.7427 257.312 57.9462 257.437 58.1559L257.598 58.4212L258.552 58.3934C258.767 58.3872 258.977 58.4753 259.114 58.6285L261.06 60.8313L262.097 60.8011C262.325 60.7949 262.55 60.895 262.68 61.0606L264.042 62.7847L267.431 64.4939C267.642 64.6006 267.78 64.8036 267.788 65.0234L267.965 70.039C268.228 70.0313 268.475 70.1621 268.599 70.3718C270.418 73.4886 271.146 73.7121 276.289 73.5632L276.4 73.5599C276.278 67.5513 277.033 61.2852 278.536 55.8382L278.318 49.6563C278.306 49.3116 278.607 49.0205 278.987 49.0095L279.119 49.0056C279.229 48.1927 279.121 47.2984 279.014 46.4229C279.014 46.4193 279.013 46.4156 279.013 46.4119C278.839 45.0146 278.66 43.5749 279.45 42.5004C279.436 42.0804 279.434 41.6411 279.425 41.1958C279.382 38.4105 279.327 35.2805 278.622 33.324L270.078 33.5715L268.768 53.7488C268.76 53.9183 268.669 54.0777 268.527 54.1888C268.386 54.2994 268.201 54.355 268.014 54.3353C265.876 54.1587 264.349 53.6129 262.744 52.4609C262.666 52.4064 262.608 52.3393 262.564 52.2651L262.204 51.6604C262.123 51.5249 262.042 51.3952 261.962 51.2597L260.145 50.7661C259.998 50.7264 259.871 50.6426 259.777 50.532L258.545 48.9611L257.536 48.9903C257.322 48.9966 257.111 48.9085 256.974 48.7557L255.028 46.5527L253.991 46.5827C253.763 46.5893 253.538 46.4892 253.408 46.3235L252.176 44.7525L251.167 44.7818C250.787 44.7928 250.466 44.5197 250.454 44.1749L250.441 43.83C250.299 43.7274 250.186 43.6554 250.094 43.6016C249.578 43.2777 249.432 43.0685 249.171 42.3292L249.005 42.3341C248.624 42.3451 248.303 42.0719 248.291 41.7271L248.181 38.6049C246.936 38.666 245.871 38.7592 244.908 38.8434C244.904 38.8437 244.9 38.8441 244.896 38.8444C242.889 39.0218 241.261 39.1631 239.198 38.9592L239.349 43.2412C239.352 43.3228 239.341 43.3984 239.309 43.4746C239.169 43.8113 238.849 43.9837 238.537 44.1497C238.535 44.1512 238.532 44.1526 238.529 44.1541C237.984 44.4436 237.642 44.6251 237.93 45.3848L239.85 46.4651C240.048 46.5786 240.166 46.7697 240.173 46.9766L240.283 50.1116C240.649 50.1006 240.963 50.3553 240.996 50.6871L242.029 61.3575L242.063 61.3565C242.444 61.3455 242.765 61.6184 242.777 61.9631L242.865 64.4709C243.176 64.4623 243.452 64.6361 243.544 64.9032C244.042 66.2887 243.999 67.5082 243.961 68.5813C243.961 68.6003 243.96 68.6192 243.959 68.6381C243.959 68.6481 243.959 68.6581 243.958 68.6681C243.906 70.0913 243.868 71.1204 245.017 72.1279C245.088 72.1949 245.146 72.2749 245.184 72.3615L245.798 73.8754L245.792 73.907Z" fill="white"/>
<path d="M232.893 77.244C231.532 77.2833 230.098 77.0616 228.811 76.8601L228.616 76.828C228.373 76.7911 228.167 76.6341 228.083 76.4229L227.5 74.9905L227.306 74.9957C226.926 75.0067 226.605 74.7338 226.593 74.3891L226.35 67.4924C225.97 67.5034 225.648 67.2305 225.636 66.8858L225.614 66.2586C225.234 66.2696 224.913 65.9967 224.901 65.652L224.68 59.3825C224.3 59.3935 223.979 59.1202 223.967 58.7754L223.702 51.252C223.322 51.2631 223 50.9902 222.988 50.645L222.945 49.3911C222.578 49.4021 222.258 49.1474 222.232 48.8094L221.055 35.0366C221.042 34.8675 221.105 34.6962 221.232 34.5671C221.359 34.4379 221.536 34.3637 221.723 34.3583L232.092 34.058C232.458 34.0474 232.771 34.2957 232.804 34.6273L233.786 44.0503L233.828 44.0491C234.208 44.0381 234.529 44.3112 234.541 44.656L234.563 45.283C234.575 45.6278 234.274 45.9189 233.894 45.9299L233.982 48.4378C234.362 48.4268 234.683 48.6997 234.695 49.0444L234.762 50.9255C235.142 50.9145 235.463 51.1874 235.475 51.5326L235.825 61.4695C237.261 65.3001 238.134 69.8561 238.366 74.663C238.374 74.9014 238.237 75.1312 237.999 75.2447C237.767 75.3582 237.543 75.4649 237.319 75.5784L236.747 75.8585C235.724 76.8548 234.345 77.1957 232.886 77.2378L232.893 77.244ZM229.246 75.655C229.248 75.6553 229.249 75.6555 229.251 75.6558C231.678 76.0309 234.373 76.4095 235.802 74.9507C235.855 74.8928 235.923 74.8468 235.998 74.8133L236.664 74.4863C236.766 74.4332 236.868 74.3863 236.97 74.3331C236.719 69.7527 235.861 65.4285 234.487 61.797C234.465 61.741 234.456 61.6787 234.453 61.616L234.122 52.212C233.742 52.223 233.421 51.9496 233.409 51.6049L233.343 49.7238C232.963 49.7348 232.641 49.4619 232.629 49.1172L232.497 45.3554C232.493 45.2425 232.524 45.1349 232.576 45.0393C232.517 44.9594 232.486 44.8661 232.476 44.766L231.494 35.3431L222.5 35.6035L223.599 48.1233C223.979 48.1123 224.3 48.3856 224.312 48.7304L224.356 49.9843C224.736 49.9732 225.057 50.2461 225.069 50.5913L225.334 58.1143C225.714 58.1033 226.036 58.3766 226.048 58.7213L226.269 64.9909C226.649 64.9798 226.97 65.2532 226.982 65.5979L227.004 66.2246C227.384 66.2136 227.705 66.487 227.717 66.8317L227.96 73.7279C228.257 73.7193 228.527 73.8874 228.632 74.1416L229.251 75.6558L229.253 75.6612L229.246 75.655Z" fill="white"/>
<path d="M3.96914 87.1484L9.92609 87.5156C10.6642 83.7161 11.9269 79.6877 12.8732 76.692L13.251 67.9702C13.2672 67.6432 13.5554 67.3775 13.9218 67.367L13.8776 66.1131C13.8654 65.7684 14.1666 65.4773 14.5468 65.4663L14.4805 63.5857C14.4684 63.2405 14.7695 62.9494 15.1497 62.9384L15.3226 62.9336C15.4666 62.3078 15.4918 61.6481 15.5105 61.0012L15.511 60.9875C15.5572 59.7541 15.605 58.4782 16.5069 57.4641C16.5729 57.3746 16.6258 57.3037 16.6521 57.2654C16.7155 57.1007 16.8561 56.9647 17.0336 56.8968C17.0811 56.8704 17.1553 56.8178 17.2836 56.7263C17.4658 56.5956 17.6997 56.5573 17.9234 56.62C18.1401 56.6827 18.3117 56.8407 18.381 57.0399C18.8377 58.4135 19.7789 59.5975 20.6912 60.7446C21.1328 61.2967 21.5819 61.8674 21.9688 62.44C22.0274 62.5324 22.0657 62.6377 22.0695 62.7445L22.0999 63.6096L22.409 63.7389C22.6408 63.8384 22.8794 63.9323 23.1112 64.0319C23.2727 64.0965 23.4018 64.2243 23.4692 64.3732L27.0919 72.7283C28.3243 72.9432 28.9187 73.1209 29.6909 73.8266C33.0744 73.8227 33.7314 73.6154 34.1609 71.6635C34.2201 71.3796 34.4964 71.1708 34.8144 71.1612L35.6301 71.1378L35.9782 69.2323C35.6649 69.1787 35.428 68.9345 35.4173 68.6338L35.2849 64.8721C35.2727 64.5269 35.5738 64.2358 35.954 64.2248L35.9099 62.9709C35.8977 62.6262 36.1989 62.3351 36.579 62.3241L36.7519 62.3193C36.8989 61.6889 36.8602 61.2376 36.8254 60.8315L36.8231 60.8045C36.7346 59.8656 36.7652 59.1618 37.9938 58.0908C38.0598 58.0013 38.1062 57.9433 38.1256 57.905C38.189 57.7399 38.3296 57.6044 38.5071 57.5364C38.5546 57.5101 38.6288 57.4574 38.7571 57.3659C38.9259 57.2482 39.1458 57.2041 39.355 57.2482C39.5641 57.2922 39.7349 57.4253 39.8242 57.6049C40.0555 58.0812 40.1457 58.4805 40.2287 58.8736C40.2868 59.1479 40.3442 59.4036 40.4519 59.7081L40.6454 59.7023C41.0256 59.6913 41.3466 59.9642 41.3588 60.3094L41.4471 62.8172C41.8273 62.8062 42.1483 63.0791 42.1605 63.4238L42.1825 64.051C42.5627 64.04 42.8837 64.3129 42.8959 64.6576L42.9621 66.5387C43.3423 66.5277 43.6633 66.8006 43.6755 67.1458L43.7859 70.2803C44.1661 70.2693 44.4871 70.5422 44.4992 70.8874L44.5434 72.1413C44.9236 72.1303 45.2446 72.4032 45.2567 72.7479L45.3451 75.2557C45.6354 75.2476 45.8969 75.4032 46.0092 75.6445C46.3314 76.3444 46.5183 76.9352 46.6733 77.4078L46.6767 77.418C47.1007 78.7217 47.2299 79.1186 49.1504 79.5637C49.4155 79.6254 49.6163 79.8265 49.6595 80.0702C51.1213 79.7202 54.5297 78.6612 55.3122 78.2873C55.5218 77.7477 55.3945 75.9126 52.8976 69.847L52.792 69.5928C52.7767 69.5492 52.7608 69.4994 52.7524 69.4559L51.9223 63.769L51.8532 63.7709C51.473 63.782 51.152 63.5086 51.1398 63.1639L51.096 61.91C50.7158 61.921 50.3948 61.6481 50.3826 61.3029L50.2939 58.7956C49.9139 58.8061 49.5929 58.5332 49.5807 58.1885L49.5145 56.3074C49.1343 56.3184 48.8133 56.0455 48.8011 55.7008L48.7349 53.8197C48.3547 53.8307 48.0337 53.5578 48.0216 53.2131L47.9146 50.1786C47.7097 49.6635 47.4632 49.1498 47.209 48.6111C46.5811 47.2864 45.9307 45.9118 45.6632 44.2125L45.6494 44.213C45.4744 44.1553 45.3319 44.0401 45.2504 43.8856L42.8517 43.9551C42.4715 43.9661 42.1505 43.693 42.1383 43.3482L42.0721 41.4673C41.8924 41.4725 41.7173 41.4148 41.582 41.3058C40.7793 40.6348 39.8493 40.6469 38.6794 40.662L38.667 40.6622C37.754 40.6761 36.7165 40.6873 35.5843 40.3687C35.3047 40.2889 35.1028 40.0562 35.0933 39.7867L35.0892 39.6738L32.8421 39.331C32.5158 40.8717 32.0683 42.3093 31.6401 43.7087L31.6374 43.7173C30.7254 46.6713 29.8637 49.4621 30.0267 53.1063C30.0327 53.2758 29.969 53.4343 29.8419 53.5573C29.7147 53.6804 29.5444 53.7541 29.3577 53.7598L27.2839 53.8197C27.042 53.8269 26.8099 53.7206 26.6786 53.5296L22.3102 47.3802C22.2813 47.3434 22.259 47.3003 22.2436 47.2567L20.9026 43.9569L20.709 43.9625C20.4878 43.9689 20.27 43.8748 20.1329 43.7156C19.3887 42.8208 18.9878 42.048 18.625 40.7845C18.2836 40.719 17.9552 40.6282 17.6339 40.5433C16.8165 40.3222 16.041 40.1125 15.0358 40.2545L15.0395 40.3612C15.0517 40.706 14.7506 40.9971 14.3703 41.0081L11.6053 41.0882C11.2251 41.0992 10.9041 40.8261 10.8919 40.4812L10.8858 40.3057L9.92857 40.0447C9.72397 40.7897 9.64107 41.5854 9.55497 42.412L9.55004 42.4594L9.54367 42.5217C9.43766 43.5599 9.32796 44.6342 8.9669 45.7459C8.87915 46.0058 8.62269 46.1889 8.32542 46.1976L8.41375 48.7055C8.4259 49.0502 8.12477 49.3413 7.7446 49.3523L7.67549 49.3542L7.24737 55.0779C7.22409 55.3987 6.93542 55.6515 6.576 55.662L6.64221 57.5426C6.65436 57.8878 6.35323 58.1789 5.97306 58.1899L6.0614 60.6977C6.07354 61.0424 5.77242 61.3335 5.39219 61.3445L5.48053 63.8523C5.49267 64.197 5.19155 64.4881 4.81138 64.4992L4.74913 64.5011L4.33601 70.8453C4.31293 71.1723 4.02432 71.4255 3.66485 71.4361L3.77526 74.5706C3.77747 74.6333 3.77277 74.6965 3.75403 74.7535C3.38299 76.0064 3.07004 77.5347 2.74637 79.1505L2.73972 79.1832C2.36434 81.0292 1.97684 82.9348 1.47442 84.4902C2.30794 85.1691 3.35913 86.3311 3.95557 87.1546L3.96914 87.1484Z" fill="white"/>
<path fill-rule="evenodd" clip-rule="evenodd" d="M67.2891 80.8846L69.059 80.8334C69.0495 80.5634 69.2343 80.3197 69.5147 80.2239L71.1769 79.6671C71.2154 79.3961 71.2534 79.0878 71.2973 78.7603C71.6679 75.9379 72.046 73.4981 72.9051 72.35C72.6669 69.3256 72.574 67.276 75.4686 66.3573L75.4633 66.2069C75.4512 65.8622 75.7521 65.5711 76.1328 65.5601L80.2804 65.4399C80.612 65.4304 80.9029 65.6353 80.9752 65.9283L81.6485 68.5381L81.7731 68.5347C82.1533 68.5237 82.4743 68.7966 82.4864 69.1413L82.5968 72.2763C82.9632 72.2658 83.2763 72.5138 83.3091 72.8456C83.4902 74.6601 83.8503 75.058 84.4617 75.7115C84.6845 75.9499 84.929 76.219 85.1978 76.5752C85.9153 76.5106 86.5632 76.4478 87.163 76.3866C89.1626 76.1778 90.7831 76.0117 93.0816 76.2525C92.7447 72.9614 91.7029 70.299 90.6912 67.7179L90.6813 67.6925C90.4565 67.1173 90.2319 66.5428 90.0212 65.9738C89.1647 63.6637 90.2282 62.0325 90.9309 60.9582C91.0556 60.7724 91.167 60.5933 91.2652 60.4272C91.3761 60.2424 91.5793 60.117 91.8069 60.0978C91.4809 59.251 90.4218 57.6602 89.915 56.899L89.9087 56.8896C89.4631 56.2246 89.1125 55.7013 88.9699 55.3853C88.9398 55.3173 88.9234 55.2426 88.9208 55.167L88.8548 53.2863C88.4741 53.2974 88.1536 53.024 88.1414 52.6793L86.7586 52.7195C86.3921 52.73 86.079 52.482 86.0468 52.1502C85.5309 46.9436 83.6391 42.3416 81.5518 37.7015C81.4193 37.6676 81.2662 37.6345 81.0983 37.5891L81.0525 37.5777C80.2874 37.3877 78.7285 37.0005 77.8985 37.1106L77.9043 37.2862C77.9106 37.4555 77.8404 37.6207 77.7132 37.7436C77.5859 37.8665 77.4085 37.9344 77.2216 37.9336C76.758 37.9345 76.2247 37.9248 75.6502 37.9163L75.6405 37.9162C73.4033 37.8805 69.667 37.8209 68.7422 38.6372C68.6213 38.7475 68.4507 38.8089 68.2776 38.8139L68.3219 40.0678C68.3341 40.4126 68.0331 40.7037 67.6529 40.7147L67.7189 42.5956C67.7311 42.9404 67.4301 43.2315 67.0499 43.2425L67.1825 47.0044C67.1946 47.3491 66.8931 47.6402 66.5129 47.6512L66.6016 50.159C66.6138 50.5037 66.3123 50.7948 65.9321 50.8058L66.0647 54.5675C66.0768 54.906 65.789 55.1904 65.4231 55.2139C65.7906 60.1361 65.5166 61.0099 61.3764 62.7052L61.1013 63.5416C61.3041 63.6048 61.4614 63.7508 61.5306 63.9433C61.6553 64.3024 64.4716 72.4126 62.6384 74.9694C62.7699 78.3103 63.5165 78.6717 64.8471 79.3171C65.5333 79.6468 66.3724 80.0596 67.2891 80.8846ZM74.4104 58.7065L75.4955 58.6749V58.6687C75.7305 58.662 75.948 58.549 76.0658 58.3637L76.2759 58.0439L78.8711 57.6546C79.0844 57.6235 79.274 57.5048 79.3717 57.3262C79.4693 57.1481 79.4757 56.9408 79.3796 56.7613L77.6393 53.5233C77.6245 53.4984 77.588 53.4429 77.588 53.4429L75.8546 51.1774C75.6803 50.9566 75.3725 50.859 75.0847 50.9361C74.7969 51.0136 74.5974 51.2516 74.5931 51.5216L74.5139 54.5738L74.2462 54.8328C74.1459 54.93 74.081 55.0573 74.0651 55.1895L73.7008 58.0051C73.6791 58.188 73.7409 58.368 73.8772 58.5021C74.0134 58.6361 74.2098 58.7122 74.4104 58.7065Z" fill="white"/>
<path d="M98.2128 81.6569C98.6062 82.0222 98.8279 82.4296 98.9985 82.7451C99.1088 82.9424 99.2276 83.165 99.3195 83.2253C100.179 83.7779 101.409 84.1273 102.608 84.4678L102.686 84.4898C103.168 84.62 103.629 84.7507 104.056 84.8891C104.203 84.935 104.331 85.0317 104.411 85.1485C104.848 84.9728 105.267 84.8857 106.074 84.812C106.452 83.7591 106.837 82.7063 107.215 81.6535L108.45 78.2289C108.539 77.9751 108.795 77.8047 109.086 77.7961L109.063 77.1693C109.051 76.8242 109.353 76.5331 109.733 76.522L109.711 75.8953C109.702 75.6569 109.847 75.4333 110.078 75.3199L110.745 74.9929C110.847 74.9397 110.956 74.8928 111.058 74.8397L111.027 73.9745C111.015 73.6298 111.316 73.3382 111.696 73.3272L111.674 72.7005C111.662 72.3558 111.963 72.0647 112.344 72.0537L112.299 70.7998C112.287 70.4546 112.588 70.1635 112.968 70.1525L113.12 70.1482L113.609 68.101C113.675 67.8166 113.944 67.614 114.262 67.6049L114.415 67.6006L114.903 65.5529C114.945 65.3696 115.071 65.2154 115.255 65.1287L115.921 64.8017C116.071 64.7285 116.221 64.6548 116.363 64.582C116.76 63.4784 117.164 62.3749 117.561 61.2713L118.514 58.6452C118.269 58.5581 118.088 58.3374 118.079 58.0808L118.022 56.4692L105.425 46.3534C105.282 46.2383 105.201 46.0775 105.195 45.902L105.084 42.7673C105.078 42.5917 105.155 42.4201 105.289 42.2969L121.179 28.2182L121.16 27.6915L119.547 27.255C119.26 27.1755 119.058 26.9428 119.049 26.6732L119.027 26.0463L118.335 26.0663C117.955 26.0773 117.634 25.8042 117.622 25.4594L117.6 24.8325L116.909 24.8525C116.529 24.8635 116.208 24.5903 116.195 24.2455L116.168 23.4744C116.05 23.4527 115.98 23.4484 115.939 23.4434C115.619 23.4212 115.47 23.3189 115.291 23.1421C115.27 23.1239 115.241 23.0933 115.205 23.0567C112.807 23.5341 111.554 25.0891 110.235 26.7277L110.232 26.7309C109.703 27.3854 109.153 28.0653 108.532 28.6723C106.594 30.4354 104.67 32.1856 102.752 33.9293C100.875 35.6406 98.9974 37.3455 97.1203 39.0566C96.4012 39.8619 95.6287 40.7065 94.8625 41.5571C94.1033 42.3949 93.344 43.2328 92.5916 44.0704L92.148 45.42L94.5684 46.9627C94.6397 47.0111 94.7036 47.0657 94.7548 47.1394L96.7275 49.9129L97.7165 49.8842C97.9097 49.8784 98.0993 49.9483 98.235 50.0762L101.856 53.4668C103.015 54.5503 104.174 55.6342 105.333 56.7177L107.381 57.8696C107.578 57.9831 107.696 58.1741 107.703 58.3809L107.725 59.0081C108.022 58.9995 108.291 59.1609 108.397 59.4151C108.813 60.4325 107.798 62.2628 105.773 65.2901C105.537 65.642 105.333 65.9494 105.209 66.1538L105.247 67.2382C105.259 67.5834 104.958 67.8745 104.578 67.8855L104.6 68.5122C104.612 68.8569 104.311 69.148 103.931 69.159L103.953 69.7862C103.965 70.1309 103.664 70.422 103.284 70.433L103.306 71.0602C103.318 71.4049 103.017 71.696 102.636 71.7071L102.659 72.3338C102.662 72.4343 102.639 72.5415 102.586 72.6311C102.183 73.3675 101.739 74.0991 101.307 74.8134L101.267 74.8784L101.257 74.8958C100.011 76.941 98.7214 79.0573 98.2059 81.6636L98.2128 81.6569Z" fill="white"/>
<path d="M139.158 67.118L139.467 67.2473C139.698 67.3474 139.937 67.4407 140.169 67.5408C140.253 67.5757 140.324 67.6241 140.388 67.6787L145.881 72.9356C148.719 72.5774 151.244 70.2071 152.422 68.077C152.467 67.9942 152.527 67.9233 152.608 67.8707C152.655 67.8381 152.702 67.7988 152.75 67.7725C150.152 65.6661 147.562 63.5531 144.972 61.44L144.964 61.4336C142.263 59.2398 139.571 57.0399 136.871 54.8462C136.728 54.7308 136.646 54.5699 136.641 54.4009L136.53 51.2659C136.523 51.0591 136.633 50.8551 136.816 50.7369L138.737 49.495C139.132 48.9065 139.415 48.2956 139.685 47.7043C140.096 46.8074 140.52 45.8852 141.348 45.0453C141.382 45.0129 141.422 44.9804 141.463 44.9541L143.276 43.7782L143.825 41.4905C143.862 41.3513 143.947 41.2234 144.069 41.132L146.498 39.3672L146.464 38.4267C146.457 38.2198 146.567 38.0158 146.75 37.8975L148.482 36.7805L148.464 36.2601C146.884 35.6155 144.484 34.455 143.134 32.8812L140.397 32.9605C139.902 33.6275 139.413 34.3006 138.925 34.9674L138.816 35.1162C138.31 35.804 137.805 36.4918 137.293 37.1799C137.227 37.2634 137.146 37.3347 137.045 37.3816C136.813 37.495 136.588 37.6019 136.364 37.7151L136.065 37.8618L136.095 38.727C136.104 38.9652 135.959 39.1891 135.728 39.3025C135.497 39.4159 135.273 39.5228 135.048 39.636L134.749 39.7827L134.779 40.6479C134.786 40.8422 134.689 41.0333 134.52 41.1574L132.091 42.9223L132.125 43.8627C132.133 44.1009 131.988 44.3247 131.757 44.4382C131.526 44.5515 131.301 44.6585 131.077 44.7716L130.778 44.9184L130.808 45.7836C130.815 45.9779 130.718 46.169 130.549 46.2931L127.932 48.1951C127.557 48.7188 127.272 49.252 127.001 49.7602L126.997 49.7659L126.988 49.7839C126.471 50.7473 125.939 51.7407 124.819 52.5591L124.852 53.4869C124.861 53.7565 124.676 53.9944 124.417 54.0897C124.582 54.4612 124.786 54.9577 124.891 55.582C128.508 57.0781 131.121 59.4822 133.651 61.8109L133.678 61.8358L133.865 62.0085C134.579 62.6663 135.31 63.3404 136.058 63.9821L138.847 65.7588C139.024 65.8732 139.134 66.0518 139.141 66.2524L139.171 67.1176L139.158 67.118Z" fill="white"/>
<path d="M180.868 72.5736C182.859 72.5286 184.923 72.3874 186.382 71.956C186.182 66.2821 186.468 60.2486 187.194 55.3388C187.35 54.3093 187.195 52.9442 187.046 51.6241L187.041 51.5843C186.781 49.3073 186.539 47.149 187.536 45.8023C187.445 44.3615 187.244 43.5828 186.904 42.7831C186.682 42.7393 186.57 42.73 186.515 42.7253C186.196 42.7032 186.047 42.6008 185.867 42.424C185.839 42.3934 185.796 42.357 185.739 42.2959L179.814 42.4675C179.821 42.6618 179.731 42.8465 179.562 42.9706C177.877 44.2306 177.931 44.9884 178.052 46.6606C178.118 47.5497 178.199 48.6585 178.007 50.0949L178.027 50.6718C178.04 51.0165 177.739 51.3076 177.358 51.3186L177.689 60.7226C177.696 60.9108 177.606 61.0956 177.444 61.2196C177.282 61.3431 177.07 61.3934 176.86 61.3555L167.808 59.7349C167.578 59.6913 167.386 59.5525 167.303 59.3543C166.773 58.1779 166.765 56.6519 166.756 55.0378L166.756 55.0085L166.756 54.9341C166.749 53.5891 166.742 52.206 166.421 51.0016L166.276 51.0055C165.896 51.0165 165.575 50.7436 165.563 50.3989L165.32 43.5023C164.946 43.5131 164.633 43.2523 164.607 42.9204L163.34 25.9873L161.929 26.0281C161.549 26.0391 161.228 25.766 161.216 25.4212C158.733 25.4679 156.08 25.5699 154.346 26.0657L156.612 51.8816C156.661 52.8655 156.878 53.9389 157.095 54.9745C157.638 57.6259 158.198 60.3583 156.292 62.2274C156.451 64.9717 156.645 64.9909 157.894 65.0928C158.602 65.1479 159.566 65.2264 160.813 65.6425C161.079 65.7286 161.26 65.9556 161.269 66.2127L162.651 66.1725C163.031 66.1615 163.352 66.4348 163.364 66.7795L164.747 66.7393C165.127 66.7283 165.449 67.0017 165.461 67.3464L166.843 67.3062C167.223 67.2952 167.544 67.5686 167.556 67.9133L168.248 67.8932C168.628 67.8821 168.949 68.1555 168.961 68.5002L171.035 68.4404C171.415 68.4294 171.736 68.7023 171.748 69.047L171.751 69.1284L176.015 69.5574C176.209 69.577 176.386 69.6723 176.501 69.813L177.798 71.4576L180.32 71.9555C180.634 72.0154 180.857 72.26 180.867 72.5487L180.868 72.5736Z" fill="white"/>
<path d="M214.115 73.5374L222.519 73.84L223.434 65.6238L204.028 64.3718C203.675 64.3507 203.396 64.0888 203.385 63.7695L202.28 32.4219C198.782 32.5044 195.637 32.4198 193.262 32.1623L193.663 62.8081C193.671 63.0403 193.527 63.2577 193.295 63.3712C193.064 63.4846 192.84 63.5914 192.615 63.7044L192.214 63.9045L190.555 70.2224C191.054 70.6533 191.354 71.1153 191.65 71.6462L192.59 71.6194C192.97 71.6084 193.291 71.8813 193.303 72.226L202.289 71.9661C202.669 71.9551 202.99 72.228 203.002 72.5727L205.768 72.4927C206.148 72.4817 206.469 72.7551 206.481 73.0998L213.394 72.8997C213.774 72.8887 214.095 73.1616 214.107 73.5063L214.109 73.5503L214.115 73.5374Z" fill="white"/>
<path d="M229.251 75.6558C231.678 76.0309 234.373 76.4095 235.802 74.9507C235.855 74.8928 235.923 74.8468 235.998 74.8133L236.664 74.4863C236.766 74.4332 236.868 74.3863 236.97 74.3331C236.719 69.7527 235.861 65.4285 234.487 61.797C234.465 61.741 234.456 61.6787 234.453 61.616L234.122 52.212C233.742 52.223 233.421 51.9496 233.409 51.6049L233.343 49.7238C232.963 49.7348 232.641 49.4619 232.629 49.1172L232.497 45.3554C232.493 45.2425 232.524 45.1349 232.576 45.0393C232.517 44.9594 232.486 44.8661 232.476 44.766L231.494 35.3431L222.5 35.6035L223.599 48.1233C223.979 48.1123 224.3 48.3856 224.312 48.7304L224.356 49.9843C224.736 49.9732 225.057 50.2461 225.069 50.5913L225.334 58.1143C225.714 58.1033 226.036 58.3766 226.048 58.7213L226.269 64.9909C226.649 64.9798 226.97 65.2532 226.982 65.5979L227.004 66.2246C227.384 66.2136 227.705 66.487 227.717 66.8317L227.96 73.7279C228.257 73.7193 228.527 73.8874 228.632 74.1416L229.251 75.6558Z" fill="white"/>
<path d="M229.322 15.5411C229.259 15.7124 229.112 15.8547 228.914 15.9169C225.372 17.1241 220.649 19.1875 219.019 21.0359C216.894 23.071 217.98 25.2258 219.131 27.5102L219.136 27.5217C219.441 28.1216 219.732 28.7031 219.959 29.2676C222.715 28.5289 224.756 27.133 226.728 25.7768L226.749 25.7625C228.763 24.3842 230.839 22.9631 233.654 22.2312C233.305 20.9673 232.672 20.0756 232.003 19.1411L231.989 19.1221C231.309 18.1626 230.609 17.1764 230.175 15.7674L229.322 15.5348L229.322 15.5411Z" fill="white"/>
<path d="M245.792 73.907C247.454 74.1287 249.904 74.3336 252.89 74.2536L252.581 65.4701C252.221 65.4802 251.908 65.2322 251.869 64.9071L250.869 56.1499C250.847 55.9493 250.931 55.7587 251.092 55.6223C251.253 55.4858 251.473 55.4293 251.689 55.4734C253.673 55.83 255.159 56.3581 256.825 57.2951C256.931 57.3549 257.01 57.4339 257.069 57.533C257.194 57.7427 257.312 57.9462 257.437 58.1559L257.598 58.4212L258.552 58.3934C258.767 58.3872 258.977 58.4753 259.114 58.6285L261.06 60.8313L262.097 60.8011C262.325 60.7949 262.55 60.895 262.68 61.0606L264.042 62.7847L267.431 64.4939C267.642 64.6006 267.78 64.8036 267.788 65.0234L267.965 70.039C268.228 70.0313 268.475 70.1621 268.599 70.3718C270.418 73.4886 271.146 73.7121 276.289 73.5632L276.4 73.5599C276.278 67.5513 277.033 61.2852 278.536 55.8382L278.318 49.6563C278.306 49.3116 278.607 49.0205 278.987 49.0095L279.119 49.0056C279.229 48.1927 279.121 47.2984 279.014 46.4229L279.013 46.4119C278.839 45.0146 278.66 43.5749 279.45 42.5004C279.436 42.0804 279.434 41.6411 279.425 41.1958C279.382 38.4105 279.327 35.2805 278.622 33.324L270.078 33.5715L268.768 53.7488C268.76 53.9183 268.669 54.0777 268.527 54.1888C268.386 54.2994 268.201 54.355 268.014 54.3353C265.876 54.1587 264.349 53.6129 262.744 52.4609C262.666 52.4064 262.608 52.3393 262.564 52.2651L262.204 51.6604C262.123 51.5249 262.042 51.3952 261.962 51.2597L260.145 50.7661C259.998 50.7264 259.871 50.6426 259.777 50.532L258.545 48.9611L257.536 48.9903C257.322 48.9966 257.111 48.9085 256.974 48.7557L255.028 46.5527L253.991 46.5827C253.763 46.5893 253.538 46.4892 253.408 46.3235L252.176 44.7525L251.167 44.7818C250.787 44.7928 250.466 44.5197 250.454 44.1749L250.441 43.83C250.299 43.7274 250.186 43.6554 250.094 43.6016C249.578 43.2777 249.432 43.0685 249.171 42.3292L249.005 42.3341C248.624 42.3451 248.303 42.0719 248.291 41.7271L248.181 38.6049C246.936 38.666 245.871 38.7592 244.908 38.8434L244.896 38.8444C242.889 39.0218 241.261 39.1631 239.198 38.9592L239.349 43.2412C239.352 43.3228 239.341 43.3984 239.309 43.4746C239.169 43.8113 238.849 43.9837 238.537 44.1497L238.529 44.1541C237.984 44.4436 237.642 44.6251 237.93 45.3848L239.85 46.4651C240.048 46.5786 240.166 46.7697 240.173 46.9766L240.283 50.1116C240.649 50.1006 240.963 50.3553 240.996 50.6871L242.029 61.3575L242.063 61.3565C242.444 61.3455 242.765 61.6184 242.777 61.9631L242.865 64.4709C243.176 64.4623 243.452 64.6361 243.544 64.9032C244.042 66.2887 243.999 67.5082 243.961 68.5813L243.959 68.6381L243.958 68.6681C243.906 70.0913 243.868 71.1204 245.017 72.1279C245.088 72.1949 245.146 72.2749 245.184 72.3615L245.798 73.8754L245.792 73.907Z" fill="white"/>
<path fill-rule="evenodd" clip-rule="evenodd" d="M296.488 97.587L303.119 99.0205L305.417 91.3793C305.498 91.1068 305.788 90.9101 306.086 90.9139C309.906 90.9225 313.052 91.8485 316.094 92.7457L316.155 92.7635C317.3 93.0998 318.386 93.4188 319.504 93.6884C325.122 95.0447 333.492 91.2313 337.286 88.9438C337.37 88.7781 337.455 88.6187 337.539 88.453L337.856 87.8287C337.966 87.6123 338.203 87.4672 338.466 87.4596L339.157 87.4399C339.145 87.0947 339.446 86.8036 339.826 86.7926L340.78 86.7654L340.929 86.4661L341.246 85.8418C341.356 85.6249 341.593 85.4803 341.856 85.4727L342.547 85.4526C342.535 85.1078 342.836 84.8167 343.216 84.8057L345.981 84.7253C346.362 84.7143 346.683 84.9877 346.695 85.3324C347.026 85.3228 347.317 85.5277 347.39 85.8207L348.095 88.5555C349.491 88.8729 350.47 89.3775 351.344 90.2249C354.109 90.1445 356.735 89.8491 358.039 88.3678C358.247 88.0771 357.281 86.3269 356.623 85.1351L356.595 85.0834L356.593 85.0807C355.027 82.2457 352.877 78.3556 353.973 74.8981C354.054 74.6386 354.318 74.4552 354.615 74.4466L354.57 73.1927C354.558 72.848 354.86 72.5569 355.24 72.5459L355.218 71.9187C355.206 71.574 355.507 71.2829 355.887 71.2719L355.843 70.018C355.831 69.6732 356.132 69.3821 356.512 69.3711L356.49 68.7439C356.478 68.3992 356.779 68.1081 357.159 68.0971L357.115 66.8432C357.103 66.4985 357.404 66.2074 357.784 66.1964L357.762 65.5692C357.753 65.3313 357.898 65.1072 358.129 64.9937L358.796 64.6672C358.898 64.6141 359.007 64.5667 359.109 64.5135L359.078 63.6484C359.066 63.3037 359.367 63.0126 359.748 63.0016L359.851 62.9987L360.332 59.7464C360.377 59.4438 360.658 59.2097 360.997 59.1996L360.953 57.9457C360.941 57.601 361.242 57.3099 361.623 57.2989L361.115 42.8792C361.103 42.5343 361.404 42.2432 361.784 42.2322L365.613 42.1213C366.334 41.3661 367.662 40.3612 368.61 39.794C368.478 37.0051 368.221 35.613 367.916 34.0152C367.873 33.7717 367.823 33.5284 367.779 33.2724L362.166 33.4349C361.786 33.4459 361.465 33.1728 361.453 32.828L361.442 32.5208C361.024 32.2541 360.685 31.991 360.374 31.7499L360.341 31.7243C359.594 31.1434 358.997 30.6838 357.727 30.4067C357.449 30.3457 357.241 30.1384 357.204 29.8822C356.815 27.2764 355.306 25.8892 353.704 24.4231L353.687 24.4078C352.942 23.7251 352.169 23.0176 351.507 22.1709C351.428 22.0728 351.382 21.9486 351.378 21.8295L351.347 20.9643C351.241 20.9172 351.129 20.8765 351.024 20.8294L350.336 20.5418C350.097 20.442 349.937 20.227 349.929 19.9887L349.895 19.0483L347.347 17.4276C347.17 17.3135 347.061 17.1347 347.053 16.9341L347.02 15.9936L344.472 14.3729C344.429 14.3491 344.394 14.3187 344.358 14.2821L340.206 10.1599L337.636 9.65695C337.433 9.61884 337.263 9.50456 337.167 9.33785L336.807 8.73326L336.638 8.44322L335.684 8.47085C335.304 8.48186 334.983 8.20872 334.971 7.86391L334.962 7.61313C331.468 6.07005 328.002 5.50515 323.137 5.69622C322.778 5.69412 322.494 5.49524 322.428 5.18964L321.711 1.92184C321.336 1.89504 320.961 1.84942 320.593 1.80988C319.308 1.6651 318.078 1.53125 316.77 1.92685L316.776 2.10866C316.788 2.45349 316.487 2.74462 316.107 2.75563L315.098 2.78486L313.979 4.42389C313.854 4.60324 313.644 4.70972 313.416 4.71632L309.268 4.83645C309.28 5.18126 308.979 5.4724 308.599 5.48341L306.525 5.5435C306.535 5.83186 306.33 6.08886 306.021 6.16681L303.799 6.73951L303.804 6.87745C303.816 7.22226 303.515 7.5134 303.135 7.52441L302.084 7.55481C301.713 8.00491 301.341 8.455 300.976 8.89858C300.525 9.43882 300.08 9.98515 299.635 10.5252C299.608 10.5511 299.589 10.583 299.555 10.6028L293.732 15.6039L293.766 16.5757C293.774 16.8139 293.63 17.0377 293.399 17.1511C293.168 17.2645 292.943 17.3714 292.719 17.4846L292.331 17.6716L291.206 23.0637C291.147 23.3541 290.871 23.563 290.546 23.5723L290.568 24.1993C290.58 24.5441 290.279 24.8352 289.899 24.8462L289.987 27.3541C289.999 27.6989 289.698 27.99 289.318 28.001L289.384 29.8819C289.396 30.2267 289.095 30.5178 288.715 30.5288L288.781 32.4097C288.793 32.7545 288.492 33.0456 288.112 33.0566L288.022 33.0592L287.55 36.9263C287.512 37.2349 287.23 37.4753 286.884 37.4853L286.906 38.1122C286.918 38.457 286.617 38.7482 286.237 38.7592L286.168 38.7612L284.814 55.1239C285.16 55.1516 285.44 55.4068 285.451 55.7266L285.77 64.7926L287.577 65.8072C287.775 65.9206 287.892 66.1117 287.9 66.3185L287.922 66.9457C288.282 66.9351 288.587 67.1774 288.633 67.5025L289.514 74.4303L289.569 74.4289C289.949 74.4179 290.271 74.6908 290.283 75.0359L290.349 76.9166C290.729 76.9055 291.05 77.1784 291.062 77.5236L291.146 79.906C291.42 80.4182 291.816 80.8707 292.233 81.3475L292.235 81.349L292.262 81.3798C292.825 82.0206 293.453 82.7356 293.868 83.7242L294.74 83.6993C295.037 83.6907 295.306 83.8583 295.412 84.1125L295.995 85.5454L296.189 85.5397C296.569 85.5287 296.89 85.8021 296.902 86.1468L296.924 86.774C297.145 86.7673 297.349 86.8558 297.486 87.0086C297.623 87.1613 297.671 87.3672 297.616 87.5572L295.763 93.8866C295.682 94.1523 295.419 94.3424 295.115 94.351L295.032 94.3534C295.054 94.9801 295.392 95.5479 295.775 96.1895L295.796 96.2262C296.048 96.6468 296.309 97.0854 296.487 97.5683L296.488 97.587ZM321.223 89.8482C321.23 89.8482 321.251 89.8472 321.251 89.8472L321.244 89.8477C321.451 89.8415 321.642 89.7481 321.768 89.6002C325.29 85.4502 331.497 84.4797 339.724 84.2915C340.084 84.2815 340.373 84.0282 340.395 83.7012C340.486 82.3386 340.727 81.3777 341.118 80.8185C341.19 80.7223 341.269 80.6069 341.355 80.4791L341.673 80.47C341.949 80.4618 342.193 80.3106 342.295 80.075C343.148 78.1105 341.468 75.3011 340.452 73.6015L340.433 73.5709C340.264 73.287 340.117 73.0467 340.021 72.8609L339.959 71.1057C339.947 70.761 339.626 70.4876 339.245 70.4986L339.223 69.8719C339.211 69.5267 338.891 69.2538 338.51 69.2648L338.444 67.3838C338.432 67.039 338.111 66.7661 337.731 66.7772L337.686 65.5232C337.674 65.1785 337.353 64.9052 336.973 64.9162L336.929 63.6623C336.921 63.4243 336.761 63.2089 336.522 63.1093C336.29 63.0092 336.052 62.9159 335.82 62.8158L335.511 62.6865L335.48 61.8214C335.468 61.4767 335.147 61.2038 334.767 61.2148L334.745 60.5876C334.733 60.2429 334.411 59.9695 334.031 59.9805L333.942 59.9834L333.198 56.1513C333.138 55.8458 332.84 55.6223 332.494 55.6323L332.45 54.3784C332.438 54.0332 332.117 53.7603 331.737 53.7713L331.543 53.7771L330.96 52.3441C330.838 52.0339 330.466 51.8687 330.116 51.9606L314.35 56.1829C314.089 56.2528 313.896 56.4596 313.863 56.7052L313.382 59.9575L313.279 59.9604C312.94 59.97 312.657 60.2041 312.613 60.5129L311.589 68.168L311.492 68.1708C311.139 68.1809 310.857 68.4275 310.827 68.7487L310.339 74.3417C309.105 78.0053 307.947 81.4716 307.984 86.4537C307.989 86.7922 308.29 87.0722 308.67 87.0737C311.104 87.0909 312.694 87.7054 314.364 88.351L314.383 88.3582C316.228 89.0764 318.136 89.8122 321.223 89.8482ZM298.645 76.6954L299.336 76.6753V76.669C299.716 76.658 300.017 76.3669 300.005 76.0217L299.974 75.1566L300.274 75.0101C300.498 74.8966 300.723 74.7899 300.954 74.6764C301.185 74.5629 301.33 74.3393 301.321 74.1009L301.167 69.7125C301.519 69.702 301.801 69.4554 301.831 69.1346L302.274 64.0319L302.344 64.03C302.724 64.0189 303.025 63.7279 303.013 63.3831L302.88 59.6214C302.868 59.2767 302.547 59.0033 302.167 59.0144L301.476 59.0345C301.095 59.0455 300.794 59.3366 300.807 59.6813L300.814 59.9073C300.356 60.0585 299.844 60.0609 299.269 60.0586C298.224 60.0576 296.938 60.0633 295.735 61.0836L295.32 61.0956C294.94 61.1066 294.639 61.3977 294.651 61.7424L294.762 64.8774C294.767 65.0339 294.842 65.1824 294.964 65.2982C296.334 66.5614 296.61 68.8571 296.903 71.2856L296.905 71.2982C297.111 73.0304 297.326 74.8253 297.981 76.3004C298.086 76.5484 298.354 76.7035 298.645 76.6954ZM349.426 69.5574C349.482 69.5684 349.544 69.5727 349.599 69.5713V69.565C349.751 69.5607 349.895 69.5124 350.01 69.4276C350.138 69.3362 350.212 69.2835 350.259 69.2572C350.437 69.1892 350.578 69.0532 350.641 68.8885C350.661 68.8502 350.7 68.7928 350.773 68.7028C351.974 67.6447 353.176 66.5933 354.377 65.5357C355.619 64.4388 356.86 63.3424 358.109 62.2518C358.216 62.1546 358.287 62.021 358.31 61.8822L358.791 58.6299L358.894 58.627C359.233 58.617 359.515 58.3829 359.56 58.0803L360.119 54.2985C360.147 54.1161 360.085 53.9293 359.949 53.7953C359.813 53.6612 359.616 53.5851 359.416 53.5908L359.394 52.9641C359.382 52.6194 359.061 52.346 358.681 52.357L358.658 51.7303C358.651 51.5235 358.534 51.332 358.336 51.2185L356.529 50.204L356.497 49.2886C356.485 48.9439 356.164 48.671 355.783 48.682L355.548 48.6887C355.377 48.3017 355.352 48.0272 355.329 47.7663L355.329 47.7599C355.272 47.1279 355.165 46.6476 354.303 45.9382L354.29 45.5871C354.278 45.2423 353.957 44.9692 353.577 44.9802L349.429 45.1003C349.25 45.1055 349.072 45.1797 348.945 45.3026C347.942 46.2919 344.917 47.0384 342.562 47.182C342.238 47.204 341.969 47.4314 341.924 47.7278L341.365 51.5091C341.337 51.692 341.399 51.8788 341.535 52.0128C341.672 52.1469 341.868 52.2225 342.068 52.2168L342.172 52.2139L342.88 55.4317C342.947 55.7372 343.245 55.9483 343.584 55.9387L343.65 57.8193C343.662 58.1641 343.983 58.4374 344.363 58.4264L344.385 59.0531C344.397 59.3983 344.718 59.6712 345.099 59.6602L345.143 60.9141C345.155 61.2588 345.476 61.5322 345.856 61.5212L345.9 62.7751C345.912 63.1198 346.233 63.3927 346.613 63.3817L346.658 64.6356C346.66 64.7175 346.684 64.7917 346.714 64.8602C347.314 66.1605 348.38 68.1507 348.957 69.2194C349.046 69.3927 349.224 69.5133 349.426 69.5574ZM293.83 52.1765C293.966 52.2919 294.147 52.3494 294.327 52.3441L294.34 52.3312C294.347 52.3312 294.354 52.3312 294.361 52.3307C296.961 52.1805 298.801 51.4985 300.576 50.8404L300.599 50.8322L300.628 50.8215C302.113 50.2738 303.521 49.7547 305.389 49.5012C305.692 49.461 305.933 49.2407 305.972 48.9635L308.129 34.366L308.232 34.363C308.612 34.352 308.913 34.0608 308.901 33.716L308.857 32.4621C309.217 32.4517 309.505 32.1986 309.528 31.8716L309.972 25.0243C311.161 21.2558 312.316 17.1179 312.277 11.6653C312.277 11.4959 312.203 11.3349 312.067 11.2195C311.931 11.1042 311.749 11.0405 311.563 11.0459L301.194 11.3462C300.813 11.3572 300.512 11.6483 300.525 11.9931C300.192 12.0027 299.917 12.2241 299.865 12.5205L299.377 15.1643L299.253 15.1679C298.872 15.1789 298.571 15.47 298.583 15.8149L298.716 19.5765C298.335 19.5875 298.034 19.8787 298.047 20.2235L298.069 20.8504C297.771 20.859 297.515 21.0422 297.427 21.302C296.971 22.7022 297.643 24.6785 298.295 26.0905C298.392 26.3073 298.612 26.4516 298.862 26.4757L298.476 30.2587L298.393 30.2611C298.013 30.2721 297.712 30.5632 297.724 30.9081L297.79 32.7889C297.41 32.7999 297.109 33.091 297.121 33.4359L297.165 34.6897C296.826 34.6995 296.544 34.9337 296.5 35.2425L295.475 42.8973L295.379 42.9001C295.088 42.9085 294.838 43.0789 294.743 43.3264C293.789 45.9083 293.599 48.5499 293.613 51.7184C293.612 51.8946 293.687 52.0616 293.83 52.1765ZM317.839 45.2307C317.974 45.3272 318.134 45.379 318.301 45.3742V45.3805C318.342 45.3793 318.384 45.3718 318.425 45.3644L325.984 43.8903C326.314 43.8242 326.54 43.5541 326.529 43.2532C326.405 40.1 325.355 38.0029 324.335 35.9677L324.278 35.8533C323.678 34.6517 323.058 33.4098 322.657 31.9432C322.595 31.7317 322.43 31.567 322.206 31.4982C321.982 31.4293 321.734 31.4679 321.552 31.5987C321.424 31.6903 321.349 31.7426 321.302 31.7691C321.125 31.837 320.984 31.9728 320.921 32.1379C320.894 32.1763 320.848 32.2404 320.769 32.3431C319.268 33.9304 317.619 42.3376 317.586 44.736C317.586 44.9305 317.676 45.1099 317.839 45.2307ZM337.479 39.7981L340.936 39.6981L340.928 39.692C341.308 39.681 341.61 39.3898 341.598 39.045L344.362 38.9649C344.743 38.9539 345.044 38.6628 345.032 38.318L345.029 38.2553L350.616 37.5286C350.967 37.4871 351.22 37.2099 351.209 36.8902L351.099 33.7555C351.091 33.5423 350.967 33.3513 350.769 33.2378C349.64 32.6115 349.097 31.7424 348.474 30.7437L348.432 30.6772C348.115 30.1739 347.788 29.6535 347.358 29.113C347.286 29.0209 347.193 28.9545 347.081 28.9076C346.849 28.8076 346.61 28.7141 346.378 28.6141L346.07 28.485L346.039 27.6198C346.03 27.3816 345.87 27.1666 345.632 27.0668C345.4 26.9668 345.161 26.8733 344.93 26.7733L344.621 26.6442L344.59 25.779C344.583 25.5722 344.465 25.381 344.267 25.2675L342.461 24.2529L342.428 23.3376C342.421 23.1307 342.304 22.9395 342.106 22.826L340.298 21.8115L340.266 20.8961C340.259 20.6955 340.149 20.5167 339.972 20.4026L337.424 18.7819L337.391 17.8414C337.384 17.6408 337.274 17.462 337.097 17.3479L334.549 15.7272L334.516 14.7868C334.503 14.442 334.182 14.1689 333.802 14.1799L333.436 14.1905C333.357 14.1112 333.278 14.0319 333.199 13.9526C332.446 13.2087 332.03 12.794 331.614 11.5697C331.527 11.2961 331.244 11.116 330.933 11.125L330.242 11.145L330.22 10.5181C330.212 10.2924 330.066 10.0895 329.848 9.98285C329.346 9.74243 329.021 9.50924 328.705 9.28199L328.696 9.27571C328.128 8.85913 327.538 8.43685 326.158 8.14423C325.955 8.09989 325.736 8.14389 325.567 8.26804C325.405 8.39194 325.308 8.57675 325.315 8.77113C325.383 11.498 326.227 13.0716 327.045 14.5971L327.057 14.62C327.264 15.0031 327.472 15.3924 327.673 15.8008L330.018 23.8413C330.097 24.1214 330.381 24.314 330.706 24.3047L330.75 25.5585C330.762 25.9034 331.083 26.1765 331.463 26.1655L331.485 26.7924C331.497 27.1372 331.818 27.4104 332.199 27.3993L332.243 28.6532C332.255 28.9981 332.576 29.2711 332.956 29.2601L333.067 32.3949C333.079 32.7397 333.4 33.0128 333.78 33.0018L333.87 32.9992L334.614 36.831C334.655 37.037 334.8 37.2085 335.011 37.2965L335.699 37.5841C335.847 37.6489 336.001 37.7071 336.149 37.7719L336.807 39.3846C336.913 39.6388 337.182 39.8067 337.479 39.7981Z" fill="white"/>
</svg>
