<svg width="15" height="16" viewBox="0 0 15 16" fill="none" xmlns="http://www.w3.org/2000/svg">
<g id="Frame">
<path id="Vector" d="M5.62503 6.75V4.25C5.62503 3.75272 5.82257 3.27581 6.1742 2.92417C6.52583 2.57254 7.00275 2.375 7.50003 2.375C7.99731 2.375 8.47422 2.57254 8.82585 2.92417C9.17749 3.27581 9.37503 3.75272 9.37503 4.25V6.75M11.25 5.5L11.8232 12.9519C11.8298 13.0377 11.8186 13.1241 11.7903 13.2054C11.762 13.2868 11.7172 13.3614 11.6587 13.4246C11.6001 13.4878 11.5292 13.5382 11.4503 13.5727C11.3714 13.6072 11.2862 13.625 11.2 13.625H3.80003C3.7139 13.625 3.6287 13.6072 3.54978 13.5727C3.47085 13.5382 3.39991 13.4878 3.3414 13.4246C3.28289 13.3614 3.23808 13.2868 3.20977 13.2054C3.18146 13.1241 3.17027 13.0377 3.1769 12.9519L3.75003 5.5H11.25Z" stroke="black" stroke-linecap="round" stroke-linejoin="round"/>
</g>
</svg>
