<svg width="17" height="12" viewBox="0 0 17 12" fill="none" xmlns="http://www.w3.org/2000/svg">
<path id="Vector" fill-rule="evenodd" clip-rule="evenodd" d="M15.9742 2.88957C15.8981 2.31125 15.6772 1.7615 15.3321 1.29121C14.9045 0.860412 14.3245 0.61515 13.7175 0.608414C11.4656 0.445648 8.08093 0.445648 8.08093 0.445648C8.08093 0.445648 4.69785 0.445648 2.44274 0.608414C1.83596 0.615013 1.25618 0.860313 0.82892 1.29121C0.482319 1.76104 0.26106 2.31139 0.185997 2.89038C0.0854111 3.75658 0.0310788 4.62753 0.0232315 5.49951V6.72025C0.0310387 7.59224 0.0853711 8.46319 0.185997 9.32938C0.262497 9.90882 0.48223 10.4606 0.824037 10.9342C1.31559 11.3705 1.94712 11.6154 2.60388 11.6244C3.89216 11.7473 8.08174 11.7871 8.08174 11.7871C8.08174 11.7871 11.4681 11.7871 13.7199 11.6244C14.3273 11.6173 14.9075 11.3718 15.3354 10.9408C15.6797 10.4699 15.9 9.91995 15.9759 9.34159C16.0765 8.47539 16.1308 7.60444 16.1386 6.73246V5.4987C16.1294 4.62671 16.0746 3.75581 15.9742 2.88957ZM6.45897 8.22339V3.64968L10.8536 5.94386L6.45897 8.22339Z" fill="white"/>
</svg>
